%FSLAX34Y34*%
G04 Gerber Fmt 3.4, Leading zero omitted, Abs format*
G04 (created by PCBNEW (2014-03-19 BZR 4756)-product) date Mon 02 Jun 2014 23:14:24 BST*
%MOIN*%
G01*
G70*
G90*
G04 APERTURE LIST*
%ADD10C,0.005906*%
%ADD11C,0.007874*%
%ADD12C,0.005000*%
%ADD13C,0.015000*%
%ADD14C,0.010000*%
%ADD15C,0.003900*%
%ADD16C,0.004700*%
%ADD17C,0.001600*%
%ADD18C,0.009843*%
%ADD19C,0.012000*%
%ADD20C,0.004500*%
G04 APERTURE END LIST*
G54D10*
G54D11*
X59887Y-52696D02*
X59857Y-52681D01*
X59812Y-52681D01*
X59767Y-52696D01*
X59738Y-52726D01*
X59723Y-52756D01*
X59708Y-52816D01*
X59708Y-52861D01*
X59723Y-52921D01*
X59738Y-52951D01*
X59767Y-52981D01*
X59812Y-52996D01*
X59842Y-52996D01*
X59887Y-52981D01*
X59902Y-52966D01*
X59902Y-52861D01*
X59842Y-52861D01*
X60037Y-52996D02*
X60037Y-52681D01*
X60217Y-52996D01*
X60217Y-52681D01*
X60367Y-52996D02*
X60367Y-52681D01*
X60442Y-52681D01*
X60487Y-52696D01*
X60517Y-52726D01*
X60532Y-52756D01*
X60547Y-52816D01*
X60547Y-52861D01*
X60532Y-52921D01*
X60517Y-52951D01*
X60487Y-52981D01*
X60442Y-52996D01*
X60367Y-52996D01*
X60722Y-52681D02*
X60917Y-52681D01*
X60812Y-52801D01*
X60857Y-52801D01*
X60887Y-52816D01*
X60902Y-52831D01*
X60917Y-52861D01*
X60917Y-52936D01*
X60902Y-52966D01*
X60887Y-52981D01*
X60857Y-52996D01*
X60767Y-52996D01*
X60737Y-52981D01*
X60722Y-52966D01*
X61007Y-52681D02*
X61112Y-52996D01*
X61217Y-52681D01*
X61292Y-52681D02*
X61487Y-52681D01*
X61382Y-52801D01*
X61427Y-52801D01*
X61457Y-52816D01*
X61472Y-52831D01*
X61487Y-52861D01*
X61487Y-52936D01*
X61472Y-52966D01*
X61457Y-52981D01*
X61427Y-52996D01*
X61337Y-52996D01*
X61307Y-52981D01*
X61292Y-52966D01*
X60891Y-38838D02*
X60861Y-38823D01*
X60816Y-38823D01*
X60771Y-38838D01*
X60741Y-38868D01*
X60726Y-38898D01*
X60711Y-38958D01*
X60711Y-39003D01*
X60726Y-39063D01*
X60741Y-39093D01*
X60771Y-39123D01*
X60816Y-39138D01*
X60846Y-39138D01*
X60891Y-39123D01*
X60906Y-39108D01*
X60906Y-39003D01*
X60846Y-39003D01*
X61041Y-39138D02*
X61041Y-38823D01*
X61221Y-39138D01*
X61221Y-38823D01*
X61371Y-39138D02*
X61371Y-38823D01*
X61446Y-38823D01*
X61491Y-38838D01*
X61521Y-38868D01*
X61536Y-38898D01*
X61551Y-38958D01*
X61551Y-39003D01*
X61536Y-39063D01*
X61521Y-39093D01*
X61491Y-39123D01*
X61446Y-39138D01*
X61371Y-39138D01*
X59902Y-38928D02*
X59902Y-39138D01*
X59827Y-38808D02*
X59752Y-39033D01*
X59947Y-39033D01*
X60127Y-38823D02*
X60157Y-38823D01*
X60187Y-38838D01*
X60202Y-38853D01*
X60217Y-38883D01*
X60232Y-38943D01*
X60232Y-39018D01*
X60217Y-39078D01*
X60202Y-39108D01*
X60187Y-39123D01*
X60157Y-39138D01*
X60127Y-39138D01*
X60097Y-39123D01*
X60082Y-39108D01*
X60067Y-39078D01*
X60052Y-39018D01*
X60052Y-38943D01*
X60067Y-38883D01*
X60082Y-38853D01*
X60097Y-38838D01*
X60127Y-38823D01*
X60322Y-38823D02*
X60427Y-39138D01*
X60532Y-38823D01*
G54D12*
X60227Y-43113D02*
X60477Y-43113D01*
X60477Y-43113D02*
X60477Y-42713D01*
X59777Y-42713D02*
X59777Y-43113D01*
X59777Y-43113D02*
X60027Y-43113D01*
X60227Y-43163D02*
X60227Y-43113D01*
X60027Y-43113D02*
X60027Y-43163D01*
X60477Y-42713D02*
X59777Y-42713D01*
X60027Y-43163D02*
X60227Y-43163D01*
X61446Y-41929D02*
X61746Y-41929D01*
X61596Y-42079D02*
X61596Y-41779D01*
X61496Y-41029D02*
X62996Y-41029D01*
X61196Y-42529D02*
X61196Y-41329D01*
X61496Y-41029D02*
X61196Y-41329D01*
X61496Y-42829D02*
X62996Y-42829D01*
X61496Y-42829D02*
X61196Y-42529D01*
X62896Y-41879D02*
X62896Y-41979D01*
X62846Y-42179D02*
X62846Y-41679D01*
X62796Y-41579D02*
X62796Y-42279D01*
X62746Y-41479D02*
X62746Y-42379D01*
X62696Y-42429D02*
X62696Y-41429D01*
X62646Y-41379D02*
X62646Y-42479D01*
X62596Y-42529D02*
X62596Y-41329D01*
X62546Y-42579D02*
X62546Y-41279D01*
X62896Y-41929D02*
G75*
G03X62896Y-41929I-800J0D01*
G74*
G01*
X62996Y-42829D02*
X62996Y-41029D01*
X63300Y-44057D02*
X63300Y-43737D01*
X62860Y-43747D02*
X62860Y-44057D01*
X62760Y-43737D02*
X63400Y-43737D01*
X63400Y-43737D02*
X63400Y-44057D01*
X63400Y-44057D02*
X62760Y-44057D01*
X62760Y-44057D02*
X62760Y-43737D01*
X60544Y-48782D02*
X60544Y-48462D01*
X60104Y-48472D02*
X60104Y-48782D01*
X60004Y-48462D02*
X60644Y-48462D01*
X60644Y-48462D02*
X60644Y-48782D01*
X60644Y-48782D02*
X60004Y-48782D01*
X60004Y-48782D02*
X60004Y-48462D01*
G54D13*
X63750Y-50551D02*
X63750Y-49055D01*
X61112Y-50551D02*
X63080Y-50551D01*
X61113Y-49055D02*
X63081Y-49055D01*
X63948Y-50946D02*
X63948Y-50513D01*
X64184Y-50749D02*
X63712Y-50749D01*
X59252Y-46043D02*
X59252Y-44941D01*
X61220Y-46043D02*
X61220Y-44941D01*
G54D14*
X60629Y-39263D02*
X60629Y-40263D01*
X59629Y-39263D02*
X59629Y-40263D01*
X59629Y-40263D02*
X60629Y-40263D01*
X60629Y-40263D02*
X61629Y-40263D01*
X61629Y-40263D02*
X61629Y-39263D01*
X61629Y-39263D02*
X59629Y-39263D01*
X60620Y-52468D02*
X60620Y-51468D01*
X61620Y-52468D02*
X61620Y-51468D01*
X61620Y-51468D02*
X60620Y-51468D01*
X60620Y-51468D02*
X59620Y-51468D01*
X59620Y-51468D02*
X59620Y-52468D01*
X59620Y-52468D02*
X61620Y-52468D01*
G54D10*
X59773Y-48188D02*
X60875Y-48188D01*
X60875Y-48188D02*
X60875Y-47480D01*
X60875Y-47480D02*
X59773Y-47480D01*
X59773Y-47480D02*
X59773Y-48188D01*
G54D13*
X61928Y-46004D02*
G75*
G03X61712Y-45748I-236J20D01*
G74*
G01*
X61712Y-46201D02*
G75*
G03X61929Y-45984I0J217D01*
G74*
G01*
X61673Y-45197D02*
X61673Y-46771D01*
X61673Y-46771D02*
X63641Y-46771D01*
X63641Y-46771D02*
X63641Y-45197D01*
X63641Y-45197D02*
X61673Y-45197D01*
X61673Y-45197D02*
X61692Y-45216D01*
G54D15*
X59956Y-42249D02*
X59956Y-41949D01*
X60027Y-41949D01*
X60070Y-41963D01*
X60099Y-41991D01*
X60113Y-42020D01*
X60127Y-42077D01*
X60127Y-42120D01*
X60113Y-42177D01*
X60099Y-42206D01*
X60070Y-42234D01*
X60027Y-42249D01*
X59956Y-42249D01*
X60413Y-42249D02*
X60242Y-42249D01*
X60327Y-42249D02*
X60327Y-41949D01*
X60299Y-41991D01*
X60270Y-42020D01*
X60242Y-42034D01*
G54D16*
X63126Y-41330D02*
X63117Y-41339D01*
X63089Y-41348D01*
X63070Y-41348D01*
X63042Y-41339D01*
X63023Y-41320D01*
X63014Y-41302D01*
X63004Y-41264D01*
X63004Y-41236D01*
X63014Y-41198D01*
X63023Y-41180D01*
X63042Y-41161D01*
X63070Y-41151D01*
X63089Y-41151D01*
X63117Y-41161D01*
X63126Y-41170D01*
X63314Y-41348D02*
X63201Y-41348D01*
X63257Y-41348D02*
X63257Y-41151D01*
X63239Y-41180D01*
X63220Y-41198D01*
X63201Y-41208D01*
G54D17*
X63067Y-43675D02*
X63063Y-43679D01*
X63052Y-43683D01*
X63044Y-43683D01*
X63033Y-43679D01*
X63026Y-43672D01*
X63022Y-43664D01*
X63018Y-43649D01*
X63018Y-43638D01*
X63022Y-43623D01*
X63026Y-43615D01*
X63033Y-43608D01*
X63044Y-43604D01*
X63052Y-43604D01*
X63063Y-43608D01*
X63067Y-43611D01*
X63097Y-43611D02*
X63101Y-43608D01*
X63108Y-43604D01*
X63127Y-43604D01*
X63135Y-43608D01*
X63139Y-43611D01*
X63142Y-43619D01*
X63142Y-43626D01*
X63139Y-43638D01*
X63093Y-43683D01*
X63142Y-43683D01*
X59524Y-48650D02*
X59520Y-48654D01*
X59509Y-48657D01*
X59501Y-48657D01*
X59490Y-48654D01*
X59482Y-48646D01*
X59479Y-48638D01*
X59475Y-48623D01*
X59475Y-48612D01*
X59479Y-48597D01*
X59482Y-48590D01*
X59490Y-48582D01*
X59501Y-48578D01*
X59509Y-48578D01*
X59520Y-48582D01*
X59524Y-48586D01*
X59550Y-48578D02*
X59599Y-48578D01*
X59573Y-48608D01*
X59584Y-48608D01*
X59591Y-48612D01*
X59595Y-48616D01*
X59599Y-48623D01*
X59599Y-48642D01*
X59595Y-48650D01*
X59591Y-48654D01*
X59584Y-48657D01*
X59561Y-48657D01*
X59554Y-48654D01*
X59550Y-48650D01*
G54D18*
X60307Y-49868D02*
X60326Y-49887D01*
X60345Y-49943D01*
X60345Y-49981D01*
X60326Y-50037D01*
X60289Y-50074D01*
X60251Y-50093D01*
X60176Y-50112D01*
X60120Y-50112D01*
X60045Y-50093D01*
X60007Y-50074D01*
X59970Y-50037D01*
X59951Y-49981D01*
X59951Y-49943D01*
X59970Y-49887D01*
X59989Y-49868D01*
X60082Y-49531D02*
X60345Y-49531D01*
X59932Y-49625D02*
X60214Y-49718D01*
X60214Y-49475D01*
G54D19*
X63718Y-50791D02*
X64176Y-50791D01*
X63947Y-51019D02*
X63947Y-50562D01*
X60507Y-45592D02*
X60507Y-45877D01*
X59907Y-45877D01*
X60507Y-45077D02*
X60507Y-45420D01*
X60507Y-45249D02*
X59907Y-45249D01*
X59993Y-45306D01*
X60050Y-45363D01*
X60079Y-45420D01*
G54D20*
X59507Y-47925D02*
X59447Y-47829D01*
X59404Y-47925D02*
X59404Y-47725D01*
X59473Y-47725D01*
X59490Y-47734D01*
X59498Y-47744D01*
X59507Y-47763D01*
X59507Y-47791D01*
X59498Y-47810D01*
X59490Y-47820D01*
X59473Y-47829D01*
X59404Y-47829D01*
X59678Y-47925D02*
X59575Y-47925D01*
X59627Y-47925D02*
X59627Y-47725D01*
X59610Y-47753D01*
X59593Y-47772D01*
X59575Y-47782D01*
G54D18*
X61804Y-48130D02*
X61616Y-48130D01*
X61616Y-47737D01*
X61935Y-48130D02*
X61935Y-47737D01*
X62066Y-48018D01*
X62198Y-47737D01*
X62198Y-48130D01*
X62366Y-47774D02*
X62385Y-47755D01*
X62423Y-47737D01*
X62516Y-47737D01*
X62554Y-47755D01*
X62573Y-47774D01*
X62591Y-47812D01*
X62591Y-47849D01*
X62573Y-47905D01*
X62348Y-48130D01*
X62591Y-48130D01*
X62948Y-47737D02*
X62760Y-47737D01*
X62741Y-47924D01*
X62760Y-47905D01*
X62798Y-47887D01*
X62891Y-47887D01*
X62929Y-47905D01*
X62948Y-47924D01*
X62966Y-47962D01*
X62966Y-48055D01*
X62948Y-48093D01*
X62929Y-48112D01*
X62891Y-48130D01*
X62798Y-48130D01*
X62760Y-48112D01*
X62741Y-48093D01*
X63154Y-48130D02*
X63229Y-48130D01*
X63266Y-48112D01*
X63285Y-48093D01*
X63323Y-48037D01*
X63341Y-47962D01*
X63341Y-47812D01*
X63323Y-47774D01*
X63304Y-47755D01*
X63266Y-47737D01*
X63191Y-47737D01*
X63154Y-47755D01*
X63135Y-47774D01*
X63116Y-47812D01*
X63116Y-47905D01*
X63135Y-47943D01*
X63154Y-47962D01*
X63191Y-47980D01*
X63266Y-47980D01*
X63304Y-47962D01*
X63323Y-47943D01*
X63341Y-47905D01*
X63473Y-47737D02*
X63735Y-47737D01*
X63566Y-48130D01*
M02*
