%FSLAX34Y34*%
G04 Gerber Fmt 3.4, Leading zero omitted, Abs format*
G04 (created by PCBNEW (2014-03-19 BZR 4756)-product) date Wed 16 Jul 2014 00:37:10 BST*
%MOIN*%
G01*
G70*
G90*
G04 APERTURE LIST*
%ADD10C,0.005906*%
%ADD11C,0.011811*%
%ADD12C,0.007874*%
%ADD13C,0.010000*%
%ADD14C,0.005000*%
%ADD15C,0.003100*%
%ADD16C,0.015000*%
%ADD17C,0.004700*%
%ADD18C,0.003000*%
%ADD19C,0.012000*%
%ADD20C,0.009843*%
G04 APERTURE END LIST*
G54D10*
G54D11*
X59441Y-33996D02*
X59385Y-33967D01*
X59301Y-33967D01*
X59216Y-33996D01*
X59160Y-34052D01*
X59132Y-34108D01*
X59104Y-34221D01*
X59104Y-34305D01*
X59132Y-34417D01*
X59160Y-34474D01*
X59216Y-34530D01*
X59301Y-34558D01*
X59357Y-34558D01*
X59441Y-34530D01*
X59469Y-34502D01*
X59469Y-34305D01*
X59357Y-34305D01*
X59723Y-34558D02*
X59723Y-33967D01*
X60060Y-34558D01*
X60060Y-33967D01*
X60341Y-34558D02*
X60341Y-33967D01*
X60482Y-33967D01*
X60566Y-33996D01*
X60622Y-34052D01*
X60651Y-34108D01*
X60679Y-34221D01*
X60679Y-34305D01*
X60651Y-34417D01*
X60622Y-34474D01*
X60566Y-34530D01*
X60482Y-34558D01*
X60341Y-34558D01*
X54253Y-34333D02*
X54703Y-34333D01*
X54478Y-34558D02*
X54478Y-34108D01*
G54D12*
X47289Y-38307D02*
X47259Y-38292D01*
X47214Y-38292D01*
X47169Y-38307D01*
X47139Y-38337D01*
X47124Y-38367D01*
X47109Y-38427D01*
X47109Y-38472D01*
X47124Y-38532D01*
X47139Y-38562D01*
X47169Y-38592D01*
X47214Y-38607D01*
X47244Y-38607D01*
X47289Y-38592D01*
X47304Y-38577D01*
X47304Y-38472D01*
X47244Y-38472D01*
X47439Y-38607D02*
X47439Y-38292D01*
X47619Y-38607D01*
X47619Y-38292D01*
X47769Y-38607D02*
X47769Y-38292D01*
X47844Y-38292D01*
X47889Y-38307D01*
X47919Y-38337D01*
X47934Y-38367D01*
X47949Y-38427D01*
X47949Y-38472D01*
X47934Y-38532D01*
X47919Y-38562D01*
X47889Y-38592D01*
X47844Y-38607D01*
X47769Y-38607D01*
X48093Y-38292D02*
X48198Y-38607D01*
X48303Y-38292D01*
X48588Y-38577D02*
X48573Y-38592D01*
X48528Y-38607D01*
X48498Y-38607D01*
X48453Y-38592D01*
X48423Y-38562D01*
X48408Y-38532D01*
X48393Y-38472D01*
X48393Y-38427D01*
X48408Y-38367D01*
X48423Y-38337D01*
X48453Y-38307D01*
X48498Y-38292D01*
X48528Y-38292D01*
X48573Y-38307D01*
X48588Y-38322D01*
X48903Y-38577D02*
X48888Y-38592D01*
X48843Y-38607D01*
X48813Y-38607D01*
X48768Y-38592D01*
X48738Y-38562D01*
X48723Y-38532D01*
X48708Y-38472D01*
X48708Y-38427D01*
X48723Y-38367D01*
X48738Y-38337D01*
X48768Y-38307D01*
X48813Y-38292D01*
X48843Y-38292D01*
X48888Y-38307D01*
X48903Y-38322D01*
X65852Y-38366D02*
X65822Y-38351D01*
X65777Y-38351D01*
X65732Y-38366D01*
X65702Y-38396D01*
X65687Y-38426D01*
X65672Y-38486D01*
X65672Y-38531D01*
X65687Y-38591D01*
X65702Y-38621D01*
X65732Y-38651D01*
X65777Y-38666D01*
X65807Y-38666D01*
X65852Y-38651D01*
X65867Y-38636D01*
X65867Y-38531D01*
X65807Y-38531D01*
X66002Y-38666D02*
X66002Y-38351D01*
X66182Y-38666D01*
X66182Y-38351D01*
X66332Y-38666D02*
X66332Y-38351D01*
X66407Y-38351D01*
X66452Y-38366D01*
X66482Y-38396D01*
X66497Y-38426D01*
X66512Y-38486D01*
X66512Y-38531D01*
X66497Y-38591D01*
X66482Y-38621D01*
X66452Y-38651D01*
X66407Y-38666D01*
X66332Y-38666D01*
X64688Y-38351D02*
X64793Y-38666D01*
X64898Y-38351D01*
X65183Y-38636D02*
X65168Y-38651D01*
X65123Y-38666D01*
X65093Y-38666D01*
X65048Y-38651D01*
X65018Y-38621D01*
X65003Y-38591D01*
X64988Y-38531D01*
X64988Y-38486D01*
X65003Y-38426D01*
X65018Y-38396D01*
X65048Y-38366D01*
X65093Y-38351D01*
X65123Y-38351D01*
X65168Y-38366D01*
X65183Y-38381D01*
X65498Y-38636D02*
X65483Y-38651D01*
X65438Y-38666D01*
X65408Y-38666D01*
X65363Y-38651D01*
X65333Y-38621D01*
X65318Y-38591D01*
X65303Y-38531D01*
X65303Y-38486D01*
X65318Y-38426D01*
X65333Y-38396D01*
X65363Y-38366D01*
X65408Y-38351D01*
X65438Y-38351D01*
X65483Y-38366D01*
X65498Y-38381D01*
G54D13*
X65620Y-37137D02*
X65620Y-38137D01*
X64620Y-37137D02*
X64620Y-38137D01*
X64620Y-38137D02*
X65620Y-38137D01*
X65620Y-38137D02*
X66620Y-38137D01*
X66620Y-38137D02*
X66620Y-37137D01*
X66620Y-37137D02*
X64620Y-37137D01*
X48061Y-38137D02*
X48061Y-37137D01*
X49061Y-38137D02*
X49061Y-37137D01*
X49061Y-37137D02*
X48061Y-37137D01*
X48061Y-37137D02*
X47061Y-37137D01*
X47061Y-37137D02*
X47061Y-38137D01*
X47061Y-38137D02*
X49061Y-38137D01*
G54D14*
X66159Y-35378D02*
X66159Y-34778D01*
X66109Y-34628D02*
X66109Y-35528D01*
X66059Y-35628D02*
X66059Y-34528D01*
X66009Y-34428D02*
X66009Y-35728D01*
X65959Y-35778D02*
X65959Y-34378D01*
X66209Y-35078D02*
G75*
G03X66209Y-35078I-1200J0D01*
G74*
G01*
X66309Y-36378D02*
X66309Y-33778D01*
X66309Y-33778D02*
X64009Y-33778D01*
X64009Y-33778D02*
X63709Y-34078D01*
X63709Y-34078D02*
X63709Y-36078D01*
X63709Y-36078D02*
X64009Y-36378D01*
X64009Y-36378D02*
X66309Y-36378D01*
X64159Y-35078D02*
X64459Y-35078D01*
X64309Y-35228D02*
X64309Y-34928D01*
G54D10*
X61515Y-37647D02*
X61515Y-38415D01*
X61515Y-38415D02*
X62007Y-38415D01*
X62007Y-38415D02*
X62007Y-37647D01*
X62007Y-37647D02*
X61515Y-37647D01*
X60098Y-35226D02*
X60866Y-35226D01*
X60866Y-35226D02*
X60866Y-34734D01*
X60866Y-34734D02*
X60098Y-34734D01*
X60098Y-34734D02*
X60098Y-35226D01*
G54D14*
X53695Y-35306D02*
X53095Y-35306D01*
X52945Y-35356D02*
X53845Y-35356D01*
X53945Y-35406D02*
X52845Y-35406D01*
X52745Y-35456D02*
X54045Y-35456D01*
X54095Y-35506D02*
X52695Y-35506D01*
X54595Y-36456D02*
G75*
G03X54595Y-36456I-1200J0D01*
G74*
G01*
X54695Y-35156D02*
X52095Y-35156D01*
X52095Y-35156D02*
X52095Y-37456D01*
X52095Y-37456D02*
X52395Y-37756D01*
X52395Y-37756D02*
X54395Y-37756D01*
X54395Y-37756D02*
X54695Y-37456D01*
X54695Y-37456D02*
X54695Y-35156D01*
X53395Y-37306D02*
X53395Y-37006D01*
X53545Y-37156D02*
X53245Y-37156D01*
G54D15*
X62178Y-34123D02*
G75*
G03X62178Y-34123I-62J0D01*
G74*
G01*
X62453Y-35086D02*
X62053Y-35086D01*
X62453Y-34061D02*
X62053Y-34061D01*
X62053Y-35086D02*
X62053Y-34061D01*
X62453Y-34061D02*
X62453Y-35086D01*
G54D10*
X47037Y-36712D02*
X47037Y-36850D01*
X47037Y-36850D02*
X47746Y-36850D01*
X47746Y-36850D02*
X47746Y-36712D01*
X47746Y-36712D02*
X47746Y-35610D01*
X47746Y-35610D02*
X47037Y-35610D01*
X47037Y-35610D02*
X47037Y-36712D01*
X47037Y-36712D02*
X47746Y-36712D01*
X48927Y-34862D02*
X48927Y-34763D01*
X48927Y-34763D02*
X48021Y-34763D01*
X48021Y-34763D02*
X48021Y-34862D01*
X48021Y-34862D02*
X48021Y-36870D01*
X48021Y-36870D02*
X48927Y-36870D01*
X48927Y-36870D02*
X48927Y-34862D01*
X48927Y-34862D02*
X48021Y-34862D01*
X51919Y-36653D02*
X49163Y-36653D01*
X49163Y-36653D02*
X49163Y-33897D01*
X49163Y-33897D02*
X51919Y-33897D01*
X51919Y-33897D02*
X51919Y-36653D01*
X59980Y-34734D02*
X59212Y-34734D01*
X59212Y-34734D02*
X59212Y-35226D01*
X59212Y-35226D02*
X59980Y-35226D01*
X59980Y-35226D02*
X59980Y-34734D01*
X47874Y-34931D02*
X47106Y-34931D01*
X47106Y-34931D02*
X47106Y-35423D01*
X47106Y-35423D02*
X47874Y-35423D01*
X47874Y-35423D02*
X47874Y-34931D01*
G54D16*
X60560Y-35727D02*
G75*
G03X60816Y-35511I20J236D01*
G74*
G01*
X60363Y-35511D02*
G75*
G03X60580Y-35728I217J0D01*
G74*
G01*
X61367Y-35472D02*
X59793Y-35472D01*
X59793Y-35472D02*
X59793Y-37440D01*
X59793Y-37440D02*
X61367Y-37440D01*
X61367Y-37440D02*
X61367Y-35472D01*
X61367Y-35472D02*
X61348Y-35491D01*
X54871Y-34488D02*
X58809Y-34488D01*
X54871Y-33503D02*
X54871Y-37441D01*
X54871Y-37441D02*
X58809Y-37441D01*
X58809Y-37441D02*
X58809Y-33503D01*
X58809Y-33503D02*
X54871Y-33503D01*
G54D13*
X56840Y-37925D02*
X56840Y-38925D01*
X55840Y-37925D02*
X55840Y-38925D01*
X55840Y-38925D02*
X56840Y-38925D01*
X56840Y-38925D02*
X57840Y-38925D01*
X57840Y-38925D02*
X57840Y-37925D01*
X57840Y-37925D02*
X55840Y-37925D01*
G54D17*
X64977Y-36699D02*
X64967Y-36708D01*
X64939Y-36717D01*
X64920Y-36717D01*
X64892Y-36708D01*
X64873Y-36689D01*
X64864Y-36670D01*
X64855Y-36633D01*
X64855Y-36605D01*
X64864Y-36567D01*
X64873Y-36549D01*
X64892Y-36530D01*
X64920Y-36520D01*
X64939Y-36520D01*
X64967Y-36530D01*
X64977Y-36539D01*
X65164Y-36717D02*
X65052Y-36717D01*
X65108Y-36717D02*
X65108Y-36520D01*
X65089Y-36549D01*
X65070Y-36567D01*
X65052Y-36577D01*
G54D18*
X61381Y-38051D02*
X61387Y-38057D01*
X61392Y-38074D01*
X61392Y-38085D01*
X61387Y-38102D01*
X61375Y-38114D01*
X61364Y-38120D01*
X61341Y-38125D01*
X61324Y-38125D01*
X61301Y-38120D01*
X61290Y-38114D01*
X61278Y-38102D01*
X61272Y-38085D01*
X61272Y-38074D01*
X61278Y-38057D01*
X61284Y-38051D01*
X61284Y-38005D02*
X61278Y-38000D01*
X61272Y-37988D01*
X61272Y-37960D01*
X61278Y-37948D01*
X61284Y-37942D01*
X61295Y-37937D01*
X61307Y-37937D01*
X61324Y-37942D01*
X61392Y-38011D01*
X61392Y-37937D01*
X61017Y-35000D02*
X61022Y-35006D01*
X61028Y-35023D01*
X61028Y-35034D01*
X61022Y-35051D01*
X61011Y-35063D01*
X61000Y-35068D01*
X60977Y-35074D01*
X60960Y-35074D01*
X60937Y-35068D01*
X60925Y-35063D01*
X60914Y-35051D01*
X60908Y-35034D01*
X60908Y-35023D01*
X60914Y-35006D01*
X60920Y-35000D01*
X60908Y-34960D02*
X60908Y-34886D01*
X60954Y-34926D01*
X60954Y-34908D01*
X60960Y-34897D01*
X60965Y-34891D01*
X60977Y-34886D01*
X61005Y-34886D01*
X61017Y-34891D01*
X61022Y-34897D01*
X61028Y-34908D01*
X61028Y-34943D01*
X61022Y-34954D01*
X61017Y-34960D01*
G54D17*
X54253Y-34816D02*
X54262Y-34825D01*
X54272Y-34853D01*
X54272Y-34872D01*
X54262Y-34900D01*
X54244Y-34919D01*
X54225Y-34928D01*
X54187Y-34938D01*
X54159Y-34938D01*
X54122Y-34928D01*
X54103Y-34919D01*
X54084Y-34900D01*
X54075Y-34872D01*
X54075Y-34853D01*
X54084Y-34825D01*
X54093Y-34816D01*
X54140Y-34647D02*
X54272Y-34647D01*
X54065Y-34694D02*
X54206Y-34741D01*
X54206Y-34619D01*
X60949Y-34230D02*
X60949Y-33930D01*
X61021Y-33930D01*
X61064Y-33944D01*
X61092Y-33973D01*
X61106Y-34001D01*
X61121Y-34058D01*
X61121Y-34101D01*
X61106Y-34158D01*
X61092Y-34187D01*
X61064Y-34215D01*
X61021Y-34230D01*
X60949Y-34230D01*
X61406Y-34230D02*
X61235Y-34230D01*
X61321Y-34230D02*
X61321Y-33930D01*
X61292Y-33973D01*
X61264Y-34001D01*
X61235Y-34015D01*
G54D14*
X48551Y-34588D02*
X48551Y-34688D01*
X48708Y-34688D02*
X48408Y-34688D01*
X48408Y-34545D01*
X48708Y-34273D02*
X48708Y-34445D01*
X48708Y-34359D02*
X48408Y-34359D01*
X48451Y-34388D01*
X48479Y-34416D01*
X48494Y-34445D01*
G54D10*
X50475Y-37422D02*
X50288Y-37422D01*
X50288Y-37028D01*
X50813Y-37422D02*
X50588Y-37422D01*
X50700Y-37422D02*
X50700Y-37028D01*
X50663Y-37084D01*
X50625Y-37122D01*
X50588Y-37140D01*
G54D18*
X59158Y-35000D02*
X59101Y-35040D01*
X59158Y-35068D02*
X59038Y-35068D01*
X59038Y-35023D01*
X59044Y-35011D01*
X59050Y-35006D01*
X59061Y-35000D01*
X59078Y-35000D01*
X59090Y-35006D01*
X59095Y-35011D01*
X59101Y-35023D01*
X59101Y-35068D01*
X59158Y-34886D02*
X59158Y-34954D01*
X59158Y-34920D02*
X59038Y-34920D01*
X59055Y-34931D01*
X59067Y-34943D01*
X59072Y-34954D01*
X47470Y-34808D02*
X47430Y-34751D01*
X47401Y-34808D02*
X47401Y-34688D01*
X47447Y-34688D01*
X47458Y-34693D01*
X47464Y-34699D01*
X47470Y-34711D01*
X47470Y-34728D01*
X47464Y-34739D01*
X47458Y-34745D01*
X47447Y-34751D01*
X47401Y-34751D01*
X47515Y-34699D02*
X47521Y-34693D01*
X47533Y-34688D01*
X47561Y-34688D01*
X47573Y-34693D01*
X47578Y-34699D01*
X47584Y-34711D01*
X47584Y-34722D01*
X47578Y-34739D01*
X47510Y-34808D01*
X47584Y-34808D01*
G54D19*
X62339Y-36913D02*
X62824Y-36913D01*
X62881Y-36885D01*
X62910Y-36856D01*
X62939Y-36799D01*
X62939Y-36685D01*
X62910Y-36628D01*
X62881Y-36599D01*
X62824Y-36570D01*
X62339Y-36570D01*
X62939Y-35970D02*
X62939Y-36313D01*
X62939Y-36142D02*
X62339Y-36142D01*
X62424Y-36199D01*
X62481Y-36256D01*
X62510Y-36313D01*
G54D20*
X59137Y-38209D02*
X58949Y-38209D01*
X58949Y-37815D01*
X59268Y-38209D02*
X59268Y-37815D01*
X59399Y-38097D01*
X59530Y-37815D01*
X59530Y-38209D01*
X59699Y-37853D02*
X59718Y-37834D01*
X59755Y-37815D01*
X59849Y-37815D01*
X59887Y-37834D01*
X59905Y-37853D01*
X59924Y-37890D01*
X59924Y-37928D01*
X59905Y-37984D01*
X59680Y-38209D01*
X59924Y-38209D01*
X60280Y-37815D02*
X60093Y-37815D01*
X60074Y-38003D01*
X60093Y-37984D01*
X60130Y-37965D01*
X60224Y-37965D01*
X60261Y-37984D01*
X60280Y-38003D01*
X60299Y-38040D01*
X60299Y-38134D01*
X60280Y-38172D01*
X60261Y-38190D01*
X60224Y-38209D01*
X60130Y-38209D01*
X60093Y-38190D01*
X60074Y-38172D01*
X60486Y-38209D02*
X60561Y-38209D01*
X60599Y-38190D01*
X60618Y-38172D01*
X60655Y-38115D01*
X60674Y-38040D01*
X60674Y-37890D01*
X60655Y-37853D01*
X60636Y-37834D01*
X60599Y-37815D01*
X60524Y-37815D01*
X60486Y-37834D01*
X60468Y-37853D01*
X60449Y-37890D01*
X60449Y-37984D01*
X60468Y-38022D01*
X60486Y-38040D01*
X60524Y-38059D01*
X60599Y-38059D01*
X60636Y-38040D01*
X60655Y-38022D01*
X60674Y-37984D01*
X60805Y-37815D02*
X61068Y-37815D01*
X60899Y-38209D01*
G54D10*
X56387Y-37606D02*
X56466Y-37843D01*
X56545Y-37606D01*
X56624Y-37843D02*
X56624Y-37606D01*
X56736Y-37685D02*
X56736Y-37843D01*
X56736Y-37708D02*
X56747Y-37696D01*
X56770Y-37685D01*
X56803Y-37685D01*
X56826Y-37696D01*
X56837Y-37719D01*
X56837Y-37843D01*
X56938Y-37629D02*
X56950Y-37618D01*
X56972Y-37606D01*
X57028Y-37606D01*
X57051Y-37618D01*
X57062Y-37629D01*
X57073Y-37651D01*
X57073Y-37674D01*
X57062Y-37708D01*
X56927Y-37843D01*
X57073Y-37843D01*
M02*
