%FSLAX34Y34*%
G04 Gerber Fmt 3.4, Leading zero omitted, Abs format*
G04 (created by PCBNEW (2014-03-19 BZR 4756)-product) date Mon 02 Jun 2014 23:14:24 BST*
%MOIN*%
G01*
G70*
G90*
G04 APERTURE LIST*
%ADD10C,0.005906*%
%ADD11C,0.009843*%
%ADD12R,0.080000X0.080000*%
%ADD13O,0.080000X0.080000*%
%ADD14R,0.133900X0.133900*%
%ADD15C,0.007087*%
G04 APERTURE END LIST*
G54D10*
G54D11*
X64144Y-44610D02*
X64144Y-44385D01*
X64144Y-44497D02*
X63750Y-44497D01*
X63807Y-44460D01*
X63844Y-44422D01*
X63863Y-44385D01*
X63750Y-44853D02*
X63750Y-44891D01*
X63769Y-44928D01*
X63788Y-44947D01*
X63825Y-44966D01*
X63900Y-44985D01*
X63994Y-44985D01*
X64069Y-44966D01*
X64107Y-44947D01*
X64125Y-44928D01*
X64144Y-44891D01*
X64144Y-44853D01*
X64125Y-44816D01*
X64107Y-44797D01*
X64069Y-44778D01*
X63994Y-44760D01*
X63900Y-44760D01*
X63825Y-44778D01*
X63788Y-44797D01*
X63769Y-44816D01*
X63750Y-44853D01*
X63882Y-45097D02*
X63882Y-45247D01*
X63750Y-45153D02*
X64088Y-45153D01*
X64125Y-45172D01*
X64144Y-45209D01*
X64144Y-45247D01*
X64144Y-45434D02*
X64125Y-45397D01*
X64107Y-45378D01*
X64069Y-45359D01*
X63957Y-45359D01*
X63919Y-45378D01*
X63900Y-45397D01*
X63882Y-45434D01*
X63882Y-45491D01*
X63900Y-45528D01*
X63919Y-45547D01*
X63957Y-45566D01*
X64069Y-45566D01*
X64107Y-45547D01*
X64125Y-45528D01*
X64144Y-45491D01*
X64144Y-45434D01*
X63750Y-45697D02*
X63750Y-45959D01*
X64144Y-45791D01*
X64107Y-46109D02*
X64125Y-46128D01*
X64144Y-46109D01*
X64125Y-46091D01*
X64107Y-46109D01*
X64144Y-46109D01*
X64125Y-46466D02*
X64144Y-46428D01*
X64144Y-46353D01*
X64125Y-46316D01*
X64107Y-46297D01*
X64069Y-46278D01*
X63957Y-46278D01*
X63919Y-46297D01*
X63900Y-46316D01*
X63882Y-46353D01*
X63882Y-46428D01*
X63900Y-46466D01*
X64144Y-46691D02*
X64125Y-46653D01*
X64107Y-46634D01*
X64069Y-46616D01*
X63957Y-46616D01*
X63919Y-46634D01*
X63900Y-46653D01*
X63882Y-46691D01*
X63882Y-46747D01*
X63900Y-46784D01*
X63919Y-46803D01*
X63957Y-46822D01*
X64069Y-46822D01*
X64107Y-46803D01*
X64125Y-46784D01*
X64144Y-46747D01*
X64144Y-46691D01*
X64144Y-46991D02*
X63882Y-46991D01*
X63919Y-46991D02*
X63900Y-47009D01*
X63882Y-47047D01*
X63882Y-47103D01*
X63900Y-47140D01*
X63938Y-47159D01*
X64144Y-47159D01*
X63938Y-47159D02*
X63900Y-47178D01*
X63882Y-47215D01*
X63882Y-47272D01*
X63900Y-47309D01*
X63938Y-47328D01*
X64144Y-47328D01*
G54D12*
X60129Y-39763D03*
G54D13*
X61129Y-39763D03*
G54D12*
X61120Y-51968D03*
G54D13*
X60120Y-51968D03*
G54D14*
X62795Y-39763D03*
X62795Y-51968D03*
G54D10*
G36*
X64234Y-51956D02*
X64121Y-52521D01*
X63808Y-52991D01*
X63600Y-53130D01*
X63600Y-52664D01*
X63600Y-52611D01*
X63600Y-51272D01*
X63579Y-51222D01*
X63541Y-51184D01*
X63491Y-51163D01*
X63437Y-51163D01*
X62098Y-51163D01*
X62049Y-51184D01*
X62010Y-51222D01*
X61990Y-51272D01*
X61990Y-51325D01*
X61990Y-52664D01*
X62010Y-52714D01*
X62049Y-52752D01*
X62098Y-52773D01*
X62152Y-52773D01*
X63491Y-52773D01*
X63541Y-52752D01*
X63579Y-52714D01*
X63600Y-52664D01*
X63600Y-53130D01*
X63338Y-53304D01*
X62773Y-53417D01*
X61655Y-53417D01*
X61655Y-52395D01*
X61655Y-52341D01*
X61655Y-51541D01*
X61654Y-51540D01*
X61654Y-39860D01*
X61654Y-39666D01*
X61652Y-39652D01*
X61569Y-39461D01*
X61420Y-39315D01*
X61227Y-39238D01*
X61143Y-39263D01*
X61143Y-39750D01*
X61630Y-39750D01*
X61654Y-39666D01*
X61654Y-39860D01*
X61630Y-39777D01*
X61143Y-39777D01*
X61143Y-40263D01*
X61227Y-40288D01*
X61420Y-40211D01*
X61569Y-40066D01*
X61652Y-39874D01*
X61654Y-39860D01*
X61654Y-51540D01*
X61634Y-51491D01*
X61596Y-51453D01*
X61547Y-51433D01*
X61493Y-51433D01*
X61116Y-51433D01*
X61116Y-40263D01*
X61116Y-39777D01*
X61108Y-39777D01*
X61108Y-39750D01*
X61116Y-39750D01*
X61116Y-39263D01*
X61032Y-39238D01*
X60839Y-39315D01*
X60690Y-39461D01*
X60665Y-39518D01*
X60665Y-39336D01*
X60644Y-39287D01*
X60606Y-39248D01*
X60556Y-39228D01*
X60502Y-39228D01*
X59702Y-39228D01*
X59653Y-39248D01*
X59615Y-39287D01*
X59594Y-39336D01*
X59594Y-39390D01*
X59594Y-40190D01*
X59615Y-40240D01*
X59653Y-40278D01*
X59702Y-40299D01*
X59756Y-40299D01*
X60556Y-40299D01*
X60606Y-40278D01*
X60644Y-40240D01*
X60665Y-40190D01*
X60665Y-40136D01*
X60665Y-40008D01*
X60690Y-40066D01*
X60839Y-40211D01*
X61032Y-40288D01*
X61116Y-40263D01*
X61116Y-51433D01*
X60693Y-51433D01*
X60643Y-51453D01*
X60605Y-51491D01*
X60584Y-51541D01*
X60584Y-51595D01*
X60584Y-51723D01*
X60559Y-51665D01*
X60410Y-51520D01*
X60217Y-51443D01*
X60133Y-51468D01*
X60133Y-51954D01*
X60141Y-51954D01*
X60141Y-51982D01*
X60133Y-51982D01*
X60133Y-52468D01*
X60217Y-52493D01*
X60410Y-52416D01*
X60559Y-52271D01*
X60584Y-52213D01*
X60584Y-52395D01*
X60605Y-52445D01*
X60643Y-52483D01*
X60693Y-52503D01*
X60747Y-52503D01*
X61547Y-52503D01*
X61596Y-52483D01*
X61634Y-52445D01*
X61655Y-52395D01*
X61655Y-53417D01*
X60140Y-53417D01*
X60106Y-53410D01*
X60106Y-52468D01*
X60106Y-51982D01*
X60106Y-51954D01*
X60106Y-51468D01*
X60022Y-51443D01*
X59829Y-51520D01*
X59680Y-51665D01*
X59597Y-51857D01*
X59595Y-51871D01*
X59619Y-51954D01*
X60106Y-51954D01*
X60106Y-51982D01*
X59619Y-51982D01*
X59595Y-52065D01*
X59597Y-52079D01*
X59680Y-52271D01*
X59829Y-52416D01*
X60022Y-52493D01*
X60106Y-52468D01*
X60106Y-53410D01*
X59574Y-53304D01*
X59105Y-52991D01*
X58791Y-52521D01*
X58679Y-51956D01*
X58679Y-39776D01*
X58791Y-39210D01*
X59105Y-38741D01*
X59574Y-38427D01*
X60140Y-38314D01*
X62773Y-38314D01*
X63338Y-38427D01*
X63808Y-38741D01*
X64121Y-39210D01*
X64234Y-39776D01*
X64234Y-44154D01*
X63600Y-44154D01*
X63600Y-40460D01*
X63600Y-40406D01*
X63600Y-39067D01*
X63579Y-39017D01*
X63541Y-38979D01*
X63491Y-38958D01*
X63437Y-38958D01*
X62098Y-38958D01*
X62049Y-38979D01*
X62010Y-39017D01*
X61990Y-39067D01*
X61990Y-39121D01*
X61990Y-40460D01*
X62010Y-40509D01*
X62049Y-40548D01*
X62098Y-40568D01*
X62152Y-40568D01*
X63491Y-40568D01*
X63541Y-40548D01*
X63579Y-40509D01*
X63600Y-40460D01*
X63600Y-44154D01*
X63437Y-44154D01*
X63437Y-47577D01*
X64234Y-47577D01*
X64234Y-51956D01*
X64234Y-51956D01*
G37*
G54D15*
X64234Y-51956D02*
X64121Y-52521D01*
X63808Y-52991D01*
X63600Y-53130D01*
X63600Y-52664D01*
X63600Y-52611D01*
X63600Y-51272D01*
X63579Y-51222D01*
X63541Y-51184D01*
X63491Y-51163D01*
X63437Y-51163D01*
X62098Y-51163D01*
X62049Y-51184D01*
X62010Y-51222D01*
X61990Y-51272D01*
X61990Y-51325D01*
X61990Y-52664D01*
X62010Y-52714D01*
X62049Y-52752D01*
X62098Y-52773D01*
X62152Y-52773D01*
X63491Y-52773D01*
X63541Y-52752D01*
X63579Y-52714D01*
X63600Y-52664D01*
X63600Y-53130D01*
X63338Y-53304D01*
X62773Y-53417D01*
X61655Y-53417D01*
X61655Y-52395D01*
X61655Y-52341D01*
X61655Y-51541D01*
X61654Y-51540D01*
X61654Y-39860D01*
X61654Y-39666D01*
X61652Y-39652D01*
X61569Y-39461D01*
X61420Y-39315D01*
X61227Y-39238D01*
X61143Y-39263D01*
X61143Y-39750D01*
X61630Y-39750D01*
X61654Y-39666D01*
X61654Y-39860D01*
X61630Y-39777D01*
X61143Y-39777D01*
X61143Y-40263D01*
X61227Y-40288D01*
X61420Y-40211D01*
X61569Y-40066D01*
X61652Y-39874D01*
X61654Y-39860D01*
X61654Y-51540D01*
X61634Y-51491D01*
X61596Y-51453D01*
X61547Y-51433D01*
X61493Y-51433D01*
X61116Y-51433D01*
X61116Y-40263D01*
X61116Y-39777D01*
X61108Y-39777D01*
X61108Y-39750D01*
X61116Y-39750D01*
X61116Y-39263D01*
X61032Y-39238D01*
X60839Y-39315D01*
X60690Y-39461D01*
X60665Y-39518D01*
X60665Y-39336D01*
X60644Y-39287D01*
X60606Y-39248D01*
X60556Y-39228D01*
X60502Y-39228D01*
X59702Y-39228D01*
X59653Y-39248D01*
X59615Y-39287D01*
X59594Y-39336D01*
X59594Y-39390D01*
X59594Y-40190D01*
X59615Y-40240D01*
X59653Y-40278D01*
X59702Y-40299D01*
X59756Y-40299D01*
X60556Y-40299D01*
X60606Y-40278D01*
X60644Y-40240D01*
X60665Y-40190D01*
X60665Y-40136D01*
X60665Y-40008D01*
X60690Y-40066D01*
X60839Y-40211D01*
X61032Y-40288D01*
X61116Y-40263D01*
X61116Y-51433D01*
X60693Y-51433D01*
X60643Y-51453D01*
X60605Y-51491D01*
X60584Y-51541D01*
X60584Y-51595D01*
X60584Y-51723D01*
X60559Y-51665D01*
X60410Y-51520D01*
X60217Y-51443D01*
X60133Y-51468D01*
X60133Y-51954D01*
X60141Y-51954D01*
X60141Y-51982D01*
X60133Y-51982D01*
X60133Y-52468D01*
X60217Y-52493D01*
X60410Y-52416D01*
X60559Y-52271D01*
X60584Y-52213D01*
X60584Y-52395D01*
X60605Y-52445D01*
X60643Y-52483D01*
X60693Y-52503D01*
X60747Y-52503D01*
X61547Y-52503D01*
X61596Y-52483D01*
X61634Y-52445D01*
X61655Y-52395D01*
X61655Y-53417D01*
X60140Y-53417D01*
X60106Y-53410D01*
X60106Y-52468D01*
X60106Y-51982D01*
X60106Y-51954D01*
X60106Y-51468D01*
X60022Y-51443D01*
X59829Y-51520D01*
X59680Y-51665D01*
X59597Y-51857D01*
X59595Y-51871D01*
X59619Y-51954D01*
X60106Y-51954D01*
X60106Y-51982D01*
X59619Y-51982D01*
X59595Y-52065D01*
X59597Y-52079D01*
X59680Y-52271D01*
X59829Y-52416D01*
X60022Y-52493D01*
X60106Y-52468D01*
X60106Y-53410D01*
X59574Y-53304D01*
X59105Y-52991D01*
X58791Y-52521D01*
X58679Y-51956D01*
X58679Y-39776D01*
X58791Y-39210D01*
X59105Y-38741D01*
X59574Y-38427D01*
X60140Y-38314D01*
X62773Y-38314D01*
X63338Y-38427D01*
X63808Y-38741D01*
X64121Y-39210D01*
X64234Y-39776D01*
X64234Y-44154D01*
X63600Y-44154D01*
X63600Y-40460D01*
X63600Y-40406D01*
X63600Y-39067D01*
X63579Y-39017D01*
X63541Y-38979D01*
X63491Y-38958D01*
X63437Y-38958D01*
X62098Y-38958D01*
X62049Y-38979D01*
X62010Y-39017D01*
X61990Y-39067D01*
X61990Y-39121D01*
X61990Y-40460D01*
X62010Y-40509D01*
X62049Y-40548D01*
X62098Y-40568D01*
X62152Y-40568D01*
X63491Y-40568D01*
X63541Y-40548D01*
X63579Y-40509D01*
X63600Y-40460D01*
X63600Y-44154D01*
X63437Y-44154D01*
X63437Y-47577D01*
X64234Y-47577D01*
X64234Y-51956D01*
M02*
