%FSLAX34Y34*%
G04 Gerber Fmt 3.4, Leading zero omitted, Abs format*
G04 (created by PCBNEW (2014-03-19 BZR 4756)-product) date Mon 02 Jun 2014 23:14:24 BST*
%MOIN*%
G01*
G70*
G90*
G04 APERTURE LIST*
%ADD10C,0.005906*%
%ADD11C,0.011811*%
%ADD12C,0.007874*%
G04 APERTURE END LIST*
G54D10*
G54D11*
X59450Y-40691D02*
X58859Y-40691D01*
X58859Y-40832D01*
X58887Y-40916D01*
X58944Y-40973D01*
X59000Y-41001D01*
X59112Y-41029D01*
X59197Y-41029D01*
X59309Y-41001D01*
X59365Y-40973D01*
X59422Y-40916D01*
X59450Y-40832D01*
X59450Y-40691D01*
X59393Y-41619D02*
X59422Y-41591D01*
X59450Y-41507D01*
X59450Y-41451D01*
X59422Y-41366D01*
X59365Y-41310D01*
X59309Y-41282D01*
X59197Y-41254D01*
X59112Y-41254D01*
X59000Y-41282D01*
X58944Y-41310D01*
X58887Y-41366D01*
X58859Y-41451D01*
X58859Y-41507D01*
X58887Y-41591D01*
X58915Y-41619D01*
X59225Y-41872D02*
X59225Y-42322D01*
X59450Y-42604D02*
X58859Y-42604D01*
X58859Y-42744D01*
X58887Y-42829D01*
X58944Y-42885D01*
X59000Y-42913D01*
X59112Y-42941D01*
X59197Y-42941D01*
X59309Y-42913D01*
X59365Y-42885D01*
X59422Y-42829D01*
X59450Y-42744D01*
X59450Y-42604D01*
X59393Y-43532D02*
X59422Y-43503D01*
X59450Y-43419D01*
X59450Y-43363D01*
X59422Y-43278D01*
X59365Y-43222D01*
X59309Y-43194D01*
X59197Y-43166D01*
X59112Y-43166D01*
X59000Y-43194D01*
X58944Y-43222D01*
X58887Y-43278D01*
X58859Y-43363D01*
X58859Y-43419D01*
X58887Y-43503D01*
X58915Y-43532D01*
X59393Y-44572D02*
X59422Y-44544D01*
X59450Y-44460D01*
X59450Y-44403D01*
X59422Y-44319D01*
X59365Y-44263D01*
X59309Y-44235D01*
X59197Y-44206D01*
X59112Y-44206D01*
X59000Y-44235D01*
X58944Y-44263D01*
X58887Y-44319D01*
X58859Y-44403D01*
X58859Y-44460D01*
X58887Y-44544D01*
X58915Y-44572D01*
X59450Y-44910D02*
X59422Y-44853D01*
X59393Y-44825D01*
X59337Y-44797D01*
X59169Y-44797D01*
X59112Y-44825D01*
X59084Y-44853D01*
X59056Y-44910D01*
X59056Y-44994D01*
X59084Y-45050D01*
X59112Y-45078D01*
X59169Y-45106D01*
X59337Y-45106D01*
X59393Y-45078D01*
X59422Y-45050D01*
X59450Y-44994D01*
X59450Y-44910D01*
X59056Y-45359D02*
X59450Y-45359D01*
X59112Y-45359D02*
X59084Y-45388D01*
X59056Y-45444D01*
X59056Y-45528D01*
X59084Y-45584D01*
X59140Y-45613D01*
X59450Y-45613D01*
X59056Y-45838D02*
X59450Y-45978D01*
X59056Y-46119D01*
X59422Y-46569D02*
X59450Y-46512D01*
X59450Y-46400D01*
X59422Y-46344D01*
X59365Y-46316D01*
X59140Y-46316D01*
X59084Y-46344D01*
X59056Y-46400D01*
X59056Y-46512D01*
X59084Y-46569D01*
X59140Y-46597D01*
X59197Y-46597D01*
X59253Y-46316D01*
X59450Y-46850D02*
X59056Y-46850D01*
X59169Y-46850D02*
X59112Y-46878D01*
X59084Y-46906D01*
X59056Y-46962D01*
X59056Y-47019D01*
X59056Y-47131D02*
X59056Y-47356D01*
X58859Y-47215D02*
X59365Y-47215D01*
X59422Y-47244D01*
X59450Y-47300D01*
X59450Y-47356D01*
X59422Y-47778D02*
X59450Y-47722D01*
X59450Y-47609D01*
X59422Y-47553D01*
X59365Y-47525D01*
X59140Y-47525D01*
X59084Y-47553D01*
X59056Y-47609D01*
X59056Y-47722D01*
X59084Y-47778D01*
X59140Y-47806D01*
X59197Y-47806D01*
X59253Y-47525D01*
X59450Y-48059D02*
X59056Y-48059D01*
X59169Y-48059D02*
X59112Y-48087D01*
X59084Y-48115D01*
X59056Y-48172D01*
X59056Y-48228D01*
X59393Y-48425D02*
X59422Y-48453D01*
X59450Y-48425D01*
X59422Y-48397D01*
X59393Y-48425D01*
X59450Y-48425D01*
X60001Y-40944D02*
X60395Y-40944D01*
X59776Y-40804D02*
X60198Y-40663D01*
X60198Y-41029D01*
X60170Y-41704D02*
X60170Y-42154D01*
X60001Y-43138D02*
X60395Y-43138D01*
X59776Y-42997D02*
X60198Y-42857D01*
X60198Y-43222D01*
X59804Y-43560D02*
X59804Y-43616D01*
X59832Y-43672D01*
X59860Y-43700D01*
X59917Y-43728D01*
X60029Y-43757D01*
X60170Y-43757D01*
X60282Y-43728D01*
X60338Y-43700D01*
X60366Y-43672D01*
X60395Y-43616D01*
X60395Y-43560D01*
X60366Y-43503D01*
X60338Y-43475D01*
X60282Y-43447D01*
X60170Y-43419D01*
X60029Y-43419D01*
X59917Y-43447D01*
X59860Y-43475D01*
X59832Y-43503D01*
X59804Y-43560D01*
X59804Y-43925D02*
X60395Y-44122D01*
X59804Y-44319D01*
X60395Y-44966D02*
X59804Y-44966D01*
X60001Y-45247D02*
X60395Y-45247D01*
X60057Y-45247D02*
X60029Y-45275D01*
X60001Y-45331D01*
X60001Y-45416D01*
X60029Y-45472D01*
X60085Y-45500D01*
X60395Y-45500D01*
X60338Y-45781D02*
X60366Y-45809D01*
X60395Y-45781D01*
X60366Y-45753D01*
X60338Y-45781D01*
X60395Y-45781D01*
X60749Y-40635D02*
X60749Y-41001D01*
X60974Y-40804D01*
X60974Y-40888D01*
X61002Y-40944D01*
X61030Y-40973D01*
X61086Y-41001D01*
X61227Y-41001D01*
X61283Y-40973D01*
X61311Y-40944D01*
X61339Y-40888D01*
X61339Y-40719D01*
X61311Y-40663D01*
X61283Y-40635D01*
X60749Y-41169D02*
X61339Y-41366D01*
X60749Y-41563D01*
X60749Y-41704D02*
X60749Y-42069D01*
X60974Y-41872D01*
X60974Y-41957D01*
X61002Y-42013D01*
X61030Y-42041D01*
X61086Y-42069D01*
X61227Y-42069D01*
X61283Y-42041D01*
X61311Y-42013D01*
X61339Y-41957D01*
X61339Y-41788D01*
X61311Y-41732D01*
X61283Y-41704D01*
X60749Y-42885D02*
X60749Y-42997D01*
X60777Y-43053D01*
X60833Y-43110D01*
X60946Y-43138D01*
X61143Y-43138D01*
X61255Y-43110D01*
X61311Y-43053D01*
X61339Y-42997D01*
X61339Y-42885D01*
X61311Y-42829D01*
X61255Y-42772D01*
X61143Y-42744D01*
X60946Y-42744D01*
X60833Y-42772D01*
X60777Y-42829D01*
X60749Y-42885D01*
X60946Y-43644D02*
X61339Y-43644D01*
X60946Y-43391D02*
X61255Y-43391D01*
X61311Y-43419D01*
X61339Y-43475D01*
X61339Y-43560D01*
X61311Y-43616D01*
X61283Y-43644D01*
X60946Y-43841D02*
X60946Y-44066D01*
X60749Y-43925D02*
X61255Y-43925D01*
X61311Y-43953D01*
X61339Y-44010D01*
X61339Y-44066D01*
X61283Y-44263D02*
X61311Y-44291D01*
X61339Y-44263D01*
X61311Y-44235D01*
X61283Y-44263D01*
X61339Y-44263D01*
G54D12*
X60367Y-52696D02*
X60397Y-52681D01*
X60442Y-52681D01*
X60487Y-52696D01*
X60517Y-52726D01*
X60532Y-52756D01*
X60547Y-52816D01*
X60547Y-52861D01*
X60532Y-52921D01*
X60517Y-52951D01*
X60487Y-52981D01*
X60442Y-52996D01*
X60412Y-52996D01*
X60367Y-52981D01*
X60352Y-52966D01*
X60352Y-52861D01*
X60412Y-52861D01*
X60217Y-52996D02*
X60217Y-52681D01*
X60037Y-52996D01*
X60037Y-52681D01*
X59887Y-52996D02*
X59887Y-52681D01*
X59812Y-52681D01*
X59767Y-52696D01*
X59738Y-52726D01*
X59723Y-52756D01*
X59708Y-52816D01*
X59708Y-52861D01*
X59723Y-52921D01*
X59738Y-52951D01*
X59767Y-52981D01*
X59812Y-52996D01*
X59887Y-52996D01*
X61502Y-52681D02*
X61307Y-52681D01*
X61412Y-52801D01*
X61367Y-52801D01*
X61337Y-52816D01*
X61322Y-52831D01*
X61307Y-52861D01*
X61307Y-52936D01*
X61322Y-52966D01*
X61337Y-52981D01*
X61367Y-52996D01*
X61457Y-52996D01*
X61487Y-52981D01*
X61502Y-52966D01*
X61217Y-52681D02*
X61112Y-52996D01*
X61007Y-52681D01*
X60932Y-52681D02*
X60737Y-52681D01*
X60842Y-52801D01*
X60797Y-52801D01*
X60767Y-52816D01*
X60752Y-52831D01*
X60737Y-52861D01*
X60737Y-52936D01*
X60752Y-52966D01*
X60767Y-52981D01*
X60797Y-52996D01*
X60887Y-52996D01*
X60917Y-52981D01*
X60932Y-52966D01*
X60352Y-38928D02*
X60352Y-39138D01*
X60427Y-38808D02*
X60502Y-39033D01*
X60307Y-39033D01*
X60127Y-38823D02*
X60097Y-38823D01*
X60067Y-38838D01*
X60052Y-38853D01*
X60037Y-38883D01*
X60022Y-38943D01*
X60022Y-39018D01*
X60037Y-39078D01*
X60052Y-39108D01*
X60067Y-39123D01*
X60097Y-39138D01*
X60127Y-39138D01*
X60157Y-39123D01*
X60172Y-39108D01*
X60187Y-39078D01*
X60202Y-39018D01*
X60202Y-38943D01*
X60187Y-38883D01*
X60172Y-38853D01*
X60157Y-38838D01*
X60127Y-38823D01*
X59932Y-38823D02*
X59827Y-39138D01*
X59723Y-38823D01*
X61411Y-38838D02*
X61441Y-38823D01*
X61486Y-38823D01*
X61531Y-38838D01*
X61561Y-38868D01*
X61576Y-38898D01*
X61591Y-38958D01*
X61591Y-39003D01*
X61576Y-39063D01*
X61561Y-39093D01*
X61531Y-39123D01*
X61486Y-39138D01*
X61456Y-39138D01*
X61411Y-39123D01*
X61396Y-39108D01*
X61396Y-39003D01*
X61456Y-39003D01*
X61261Y-39138D02*
X61261Y-38823D01*
X61081Y-39138D01*
X61081Y-38823D01*
X60931Y-39138D02*
X60931Y-38823D01*
X60856Y-38823D01*
X60811Y-38838D01*
X60781Y-38868D01*
X60766Y-38898D01*
X60751Y-38958D01*
X60751Y-39003D01*
X60766Y-39063D01*
X60781Y-39093D01*
X60811Y-39123D01*
X60856Y-39138D01*
X60931Y-39138D01*
M02*
