%FSLAX34Y34*%
G04 Gerber Fmt 3.4, Leading zero omitted, Abs format*
G04 (created by PCBNEW (2014-03-19 BZR 4756)-product) date Wed 16 Jul 2014 00:37:10 BST*
%MOIN*%
G01*
G70*
G90*
G04 APERTURE LIST*
%ADD10C,0.005906*%
%ADD11C,0.009843*%
%ADD12R,0.080000X0.080000*%
%ADD13O,0.080000X0.080000*%
%ADD14R,0.133900X0.133900*%
%ADD15R,0.141700X0.063000*%
%ADD16R,0.023600X0.015700*%
%ADD17R,0.015700X0.023600*%
%ADD18R,0.063000X0.141700*%
%ADD19R,0.039400X0.031500*%
%ADD20R,0.045000X0.025000*%
%ADD21R,0.080000X0.060000*%
%ADD22R,0.070866X0.228346*%
%ADD23R,0.047200X0.023600*%
G04 APERTURE END LIST*
G54D10*
G54D11*
X52238Y-38997D02*
X52013Y-38997D01*
X52125Y-38997D02*
X52125Y-38603D01*
X52088Y-38659D01*
X52050Y-38697D01*
X52013Y-38715D01*
X52481Y-38603D02*
X52519Y-38603D01*
X52556Y-38622D01*
X52575Y-38640D01*
X52594Y-38678D01*
X52612Y-38753D01*
X52612Y-38847D01*
X52594Y-38922D01*
X52575Y-38959D01*
X52556Y-38978D01*
X52519Y-38997D01*
X52481Y-38997D01*
X52444Y-38978D01*
X52425Y-38959D01*
X52406Y-38922D01*
X52387Y-38847D01*
X52387Y-38753D01*
X52406Y-38678D01*
X52425Y-38640D01*
X52444Y-38622D01*
X52481Y-38603D01*
X52725Y-38734D02*
X52875Y-38734D01*
X52781Y-38603D02*
X52781Y-38940D01*
X52800Y-38978D01*
X52837Y-38997D01*
X52875Y-38997D01*
X53062Y-38997D02*
X53025Y-38978D01*
X53006Y-38959D01*
X52987Y-38922D01*
X52987Y-38809D01*
X53006Y-38772D01*
X53025Y-38753D01*
X53062Y-38734D01*
X53119Y-38734D01*
X53156Y-38753D01*
X53175Y-38772D01*
X53194Y-38809D01*
X53194Y-38922D01*
X53175Y-38959D01*
X53156Y-38978D01*
X53119Y-38997D01*
X53062Y-38997D01*
X53325Y-38603D02*
X53587Y-38603D01*
X53419Y-38997D01*
X53737Y-38959D02*
X53756Y-38978D01*
X53737Y-38997D01*
X53719Y-38978D01*
X53737Y-38959D01*
X53737Y-38997D01*
X54094Y-38978D02*
X54056Y-38997D01*
X53981Y-38997D01*
X53944Y-38978D01*
X53925Y-38959D01*
X53906Y-38922D01*
X53906Y-38809D01*
X53925Y-38772D01*
X53944Y-38753D01*
X53981Y-38734D01*
X54056Y-38734D01*
X54094Y-38753D01*
X54318Y-38997D02*
X54281Y-38978D01*
X54262Y-38959D01*
X54244Y-38922D01*
X54244Y-38809D01*
X54262Y-38772D01*
X54281Y-38753D01*
X54318Y-38734D01*
X54375Y-38734D01*
X54412Y-38753D01*
X54431Y-38772D01*
X54450Y-38809D01*
X54450Y-38922D01*
X54431Y-38959D01*
X54412Y-38978D01*
X54375Y-38997D01*
X54318Y-38997D01*
X54618Y-38997D02*
X54618Y-38734D01*
X54618Y-38772D02*
X54637Y-38753D01*
X54675Y-38734D01*
X54731Y-38734D01*
X54768Y-38753D01*
X54787Y-38790D01*
X54787Y-38997D01*
X54787Y-38790D02*
X54806Y-38753D01*
X54843Y-38734D01*
X54900Y-38734D01*
X54937Y-38753D01*
X54956Y-38790D01*
X54956Y-38997D01*
G54D12*
X65120Y-37637D03*
G54D13*
X66120Y-37637D03*
G54D12*
X48561Y-37637D03*
G54D13*
X47561Y-37637D03*
G54D14*
X50738Y-37637D03*
X62942Y-37637D03*
G54D15*
X63926Y-35078D03*
X66092Y-35078D03*
G54D16*
X61761Y-37854D03*
X61761Y-38208D03*
G54D17*
X60305Y-34980D03*
X60659Y-34980D03*
G54D18*
X53395Y-37539D03*
X53395Y-35373D03*
G54D19*
X62686Y-34586D03*
X61820Y-34961D03*
X61820Y-34211D03*
G54D20*
X47391Y-36461D03*
X47391Y-35861D03*
G54D21*
X48474Y-35216D03*
X48474Y-36516D03*
G54D22*
X51427Y-35275D03*
X49655Y-35275D03*
G54D17*
X59773Y-34980D03*
X59419Y-34980D03*
X47667Y-35177D03*
X47313Y-35177D03*
G54D23*
X59438Y-35708D03*
X59438Y-36200D03*
X59438Y-36712D03*
X59438Y-37204D03*
X61722Y-37204D03*
X61722Y-36712D03*
X61722Y-36200D03*
X61722Y-35688D03*
G54D12*
X56340Y-38425D03*
G54D13*
X57340Y-38425D03*
M02*
