%FSLAX34Y34*%
G04 Gerber Fmt 3.4, Leading zero omitted, Abs format*
G04 (created by PCBNEW (2014-03-19 BZR 4756)-product) date Fri 20 Jun 2014 08:00:44 BST*
%MOIN*%
G01*
G70*
G90*
G04 APERTURE LIST*
%ADD10C,0.005906*%
%ADD11C,0.009843*%
%ADD12R,0.080000X0.080000*%
%ADD13O,0.080000X0.080000*%
%ADD14R,0.133900X0.133900*%
%ADD15O,0.078700X0.118700*%
G04 APERTURE END LIST*
G54D10*
G54D11*
X58687Y-36634D02*
X58912Y-36634D01*
X58799Y-36634D02*
X58799Y-36241D01*
X58837Y-36297D01*
X58874Y-36334D01*
X58912Y-36353D01*
X58443Y-36241D02*
X58405Y-36241D01*
X58368Y-36259D01*
X58349Y-36278D01*
X58330Y-36316D01*
X58312Y-36391D01*
X58312Y-36484D01*
X58330Y-36559D01*
X58349Y-36597D01*
X58368Y-36616D01*
X58405Y-36634D01*
X58443Y-36634D01*
X58480Y-36616D01*
X58499Y-36597D01*
X58518Y-36559D01*
X58537Y-36484D01*
X58537Y-36391D01*
X58518Y-36316D01*
X58499Y-36278D01*
X58480Y-36259D01*
X58443Y-36241D01*
X58199Y-36372D02*
X58049Y-36372D01*
X58143Y-36241D02*
X58143Y-36578D01*
X58124Y-36616D01*
X58087Y-36634D01*
X58049Y-36634D01*
X57862Y-36634D02*
X57899Y-36616D01*
X57918Y-36597D01*
X57937Y-36559D01*
X57937Y-36447D01*
X57918Y-36409D01*
X57899Y-36391D01*
X57862Y-36372D01*
X57806Y-36372D01*
X57768Y-36391D01*
X57749Y-36409D01*
X57731Y-36447D01*
X57731Y-36559D01*
X57749Y-36597D01*
X57768Y-36616D01*
X57806Y-36634D01*
X57862Y-36634D01*
X57599Y-36241D02*
X57337Y-36241D01*
X57506Y-36634D01*
X57187Y-36597D02*
X57168Y-36616D01*
X57187Y-36634D01*
X57206Y-36616D01*
X57187Y-36597D01*
X57187Y-36634D01*
X56831Y-36616D02*
X56868Y-36634D01*
X56943Y-36634D01*
X56981Y-36616D01*
X56999Y-36597D01*
X57018Y-36559D01*
X57018Y-36447D01*
X56999Y-36409D01*
X56981Y-36391D01*
X56943Y-36372D01*
X56868Y-36372D01*
X56831Y-36391D01*
X56606Y-36634D02*
X56643Y-36616D01*
X56662Y-36597D01*
X56681Y-36559D01*
X56681Y-36447D01*
X56662Y-36409D01*
X56643Y-36391D01*
X56606Y-36372D01*
X56549Y-36372D01*
X56512Y-36391D01*
X56493Y-36409D01*
X56474Y-36447D01*
X56474Y-36559D01*
X56493Y-36597D01*
X56512Y-36616D01*
X56549Y-36634D01*
X56606Y-36634D01*
X56306Y-36634D02*
X56306Y-36372D01*
X56306Y-36409D02*
X56287Y-36391D01*
X56250Y-36372D01*
X56193Y-36372D01*
X56156Y-36391D01*
X56137Y-36428D01*
X56137Y-36634D01*
X56137Y-36428D02*
X56118Y-36391D01*
X56081Y-36372D01*
X56025Y-36372D01*
X55987Y-36391D01*
X55968Y-36428D01*
X55968Y-36634D01*
G54D12*
X65710Y-35669D03*
G54D13*
X66710Y-35669D03*
G54D12*
X49151Y-35669D03*
G54D13*
X48151Y-35669D03*
G54D14*
X51328Y-35669D03*
X63533Y-35669D03*
G54D15*
X56545Y-33897D03*
X58513Y-33897D03*
M02*
