%FSLAX34Y34*%
G04 Gerber Fmt 3.4, Leading zero omitted, Abs format*
G04 (created by PCBNEW (2014-03-19 BZR 4756)-product) date Mon 02 Jun 2014 23:14:24 BST*
%MOIN*%
G01*
G70*
G90*
G04 APERTURE LIST*
%ADD10C,0.005906*%
%ADD11C,0.009843*%
%ADD12R,0.080000X0.080000*%
%ADD13O,0.080000X0.080000*%
%ADD14R,0.133900X0.133900*%
G04 APERTURE END LIST*
G54D10*
G54D11*
X64144Y-44610D02*
X64144Y-44385D01*
X64144Y-44497D02*
X63750Y-44497D01*
X63807Y-44460D01*
X63844Y-44422D01*
X63863Y-44385D01*
X63750Y-44853D02*
X63750Y-44891D01*
X63769Y-44928D01*
X63788Y-44947D01*
X63825Y-44966D01*
X63900Y-44985D01*
X63994Y-44985D01*
X64069Y-44966D01*
X64107Y-44947D01*
X64125Y-44928D01*
X64144Y-44891D01*
X64144Y-44853D01*
X64125Y-44816D01*
X64107Y-44797D01*
X64069Y-44778D01*
X63994Y-44760D01*
X63900Y-44760D01*
X63825Y-44778D01*
X63788Y-44797D01*
X63769Y-44816D01*
X63750Y-44853D01*
X63882Y-45097D02*
X63882Y-45247D01*
X63750Y-45153D02*
X64088Y-45153D01*
X64125Y-45172D01*
X64144Y-45209D01*
X64144Y-45247D01*
X64144Y-45434D02*
X64125Y-45397D01*
X64107Y-45378D01*
X64069Y-45359D01*
X63957Y-45359D01*
X63919Y-45378D01*
X63900Y-45397D01*
X63882Y-45434D01*
X63882Y-45491D01*
X63900Y-45528D01*
X63919Y-45547D01*
X63957Y-45566D01*
X64069Y-45566D01*
X64107Y-45547D01*
X64125Y-45528D01*
X64144Y-45491D01*
X64144Y-45434D01*
X63750Y-45697D02*
X63750Y-45959D01*
X64144Y-45791D01*
X64107Y-46109D02*
X64125Y-46128D01*
X64144Y-46109D01*
X64125Y-46091D01*
X64107Y-46109D01*
X64144Y-46109D01*
X64125Y-46466D02*
X64144Y-46428D01*
X64144Y-46353D01*
X64125Y-46316D01*
X64107Y-46297D01*
X64069Y-46278D01*
X63957Y-46278D01*
X63919Y-46297D01*
X63900Y-46316D01*
X63882Y-46353D01*
X63882Y-46428D01*
X63900Y-46466D01*
X64144Y-46691D02*
X64125Y-46653D01*
X64107Y-46634D01*
X64069Y-46616D01*
X63957Y-46616D01*
X63919Y-46634D01*
X63900Y-46653D01*
X63882Y-46691D01*
X63882Y-46747D01*
X63900Y-46784D01*
X63919Y-46803D01*
X63957Y-46822D01*
X64069Y-46822D01*
X64107Y-46803D01*
X64125Y-46784D01*
X64144Y-46747D01*
X64144Y-46691D01*
X64144Y-46991D02*
X63882Y-46991D01*
X63919Y-46991D02*
X63900Y-47009D01*
X63882Y-47047D01*
X63882Y-47103D01*
X63900Y-47140D01*
X63938Y-47159D01*
X64144Y-47159D01*
X63938Y-47159D02*
X63900Y-47178D01*
X63882Y-47215D01*
X63882Y-47272D01*
X63900Y-47309D01*
X63938Y-47328D01*
X64144Y-47328D01*
G54D12*
X60129Y-39763D03*
G54D13*
X61129Y-39763D03*
G54D12*
X61120Y-51968D03*
G54D13*
X60120Y-51968D03*
G54D14*
X62795Y-39763D03*
X62795Y-51968D03*
M02*
