%FSLAX34Y34*%
G04 Gerber Fmt 3.4, Leading zero omitted, Abs format*
G04 (created by PCBNEW (2014-03-19 BZR 4756)-product) date Fri 20 Jun 2014 08:00:44 BST*
%MOIN*%
G01*
G70*
G90*
G04 APERTURE LIST*
%ADD10C,0.005906*%
%ADD11C,0.009843*%
%ADD12R,0.080000X0.080000*%
%ADD13O,0.080000X0.080000*%
%ADD14R,0.133900X0.133900*%
%ADD15O,0.078700X0.118700*%
%ADD16C,0.010000*%
G04 APERTURE END LIST*
G54D10*
G54D11*
X58687Y-36634D02*
X58912Y-36634D01*
X58799Y-36634D02*
X58799Y-36241D01*
X58837Y-36297D01*
X58874Y-36334D01*
X58912Y-36353D01*
X58443Y-36241D02*
X58405Y-36241D01*
X58368Y-36259D01*
X58349Y-36278D01*
X58330Y-36316D01*
X58312Y-36391D01*
X58312Y-36484D01*
X58330Y-36559D01*
X58349Y-36597D01*
X58368Y-36616D01*
X58405Y-36634D01*
X58443Y-36634D01*
X58480Y-36616D01*
X58499Y-36597D01*
X58518Y-36559D01*
X58537Y-36484D01*
X58537Y-36391D01*
X58518Y-36316D01*
X58499Y-36278D01*
X58480Y-36259D01*
X58443Y-36241D01*
X58199Y-36372D02*
X58049Y-36372D01*
X58143Y-36241D02*
X58143Y-36578D01*
X58124Y-36616D01*
X58087Y-36634D01*
X58049Y-36634D01*
X57862Y-36634D02*
X57899Y-36616D01*
X57918Y-36597D01*
X57937Y-36559D01*
X57937Y-36447D01*
X57918Y-36409D01*
X57899Y-36391D01*
X57862Y-36372D01*
X57806Y-36372D01*
X57768Y-36391D01*
X57749Y-36409D01*
X57731Y-36447D01*
X57731Y-36559D01*
X57749Y-36597D01*
X57768Y-36616D01*
X57806Y-36634D01*
X57862Y-36634D01*
X57599Y-36241D02*
X57337Y-36241D01*
X57506Y-36634D01*
X57187Y-36597D02*
X57168Y-36616D01*
X57187Y-36634D01*
X57206Y-36616D01*
X57187Y-36597D01*
X57187Y-36634D01*
X56831Y-36616D02*
X56868Y-36634D01*
X56943Y-36634D01*
X56981Y-36616D01*
X56999Y-36597D01*
X57018Y-36559D01*
X57018Y-36447D01*
X56999Y-36409D01*
X56981Y-36391D01*
X56943Y-36372D01*
X56868Y-36372D01*
X56831Y-36391D01*
X56606Y-36634D02*
X56643Y-36616D01*
X56662Y-36597D01*
X56681Y-36559D01*
X56681Y-36447D01*
X56662Y-36409D01*
X56643Y-36391D01*
X56606Y-36372D01*
X56549Y-36372D01*
X56512Y-36391D01*
X56493Y-36409D01*
X56474Y-36447D01*
X56474Y-36559D01*
X56493Y-36597D01*
X56512Y-36616D01*
X56549Y-36634D01*
X56606Y-36634D01*
X56306Y-36634D02*
X56306Y-36372D01*
X56306Y-36409D02*
X56287Y-36391D01*
X56250Y-36372D01*
X56193Y-36372D01*
X56156Y-36391D01*
X56137Y-36428D01*
X56137Y-36634D01*
X56137Y-36428D02*
X56118Y-36391D01*
X56081Y-36372D01*
X56025Y-36372D01*
X55987Y-36391D01*
X55968Y-36428D01*
X55968Y-36634D01*
G54D12*
X65710Y-35669D03*
G54D13*
X66710Y-35669D03*
G54D12*
X49151Y-35669D03*
G54D13*
X48151Y-35669D03*
G54D14*
X51328Y-35669D03*
X63533Y-35669D03*
G54D15*
X56545Y-33897D03*
X58513Y-33897D03*
G54D16*
X48629Y-34641D02*
X48151Y-35119D01*
X57226Y-34641D02*
X48629Y-34641D01*
X57969Y-33897D02*
X57226Y-34641D01*
X58513Y-33897D02*
X57969Y-33897D01*
X48151Y-35669D02*
X48151Y-35119D01*
G54D10*
G36*
X67397Y-36430D02*
X67353Y-36652D01*
X67342Y-36668D01*
X67342Y-35820D01*
X67342Y-35518D01*
X67264Y-35328D01*
X67091Y-35142D01*
X66861Y-35037D01*
X66760Y-35083D01*
X66760Y-35619D01*
X67295Y-35619D01*
X67342Y-35518D01*
X67342Y-35820D01*
X67295Y-35719D01*
X66760Y-35719D01*
X66760Y-36254D01*
X66861Y-36301D01*
X67091Y-36195D01*
X67264Y-36009D01*
X67342Y-35820D01*
X67342Y-36668D01*
X67242Y-36819D01*
X67076Y-36930D01*
X66853Y-36974D01*
X66660Y-36974D01*
X66660Y-36254D01*
X66660Y-35719D01*
X66652Y-35719D01*
X66652Y-35619D01*
X66660Y-35619D01*
X66660Y-35083D01*
X66559Y-35037D01*
X66329Y-35142D01*
X66329Y-35143D01*
X66322Y-35127D01*
X66252Y-35057D01*
X66160Y-35019D01*
X66060Y-35019D01*
X65260Y-35019D01*
X65169Y-35057D01*
X65098Y-35127D01*
X65060Y-35219D01*
X65060Y-35319D01*
X65060Y-36119D01*
X65098Y-36210D01*
X65169Y-36281D01*
X65260Y-36319D01*
X65360Y-36319D01*
X66160Y-36319D01*
X66252Y-36281D01*
X66322Y-36210D01*
X66329Y-36195D01*
X66329Y-36195D01*
X66559Y-36301D01*
X66660Y-36254D01*
X66660Y-36974D01*
X64452Y-36974D01*
X64452Y-36388D01*
X64452Y-36289D01*
X64452Y-34950D01*
X64414Y-34858D01*
X64344Y-34787D01*
X64252Y-34749D01*
X64153Y-34749D01*
X62814Y-34749D01*
X62722Y-34787D01*
X62652Y-34858D01*
X62613Y-34950D01*
X62613Y-35049D01*
X62613Y-36388D01*
X62652Y-36480D01*
X62722Y-36550D01*
X62814Y-36588D01*
X62913Y-36588D01*
X64252Y-36588D01*
X64344Y-36550D01*
X64414Y-36480D01*
X64452Y-36388D01*
X64452Y-36974D01*
X59286Y-36974D01*
X59286Y-35783D01*
X59157Y-35783D01*
X59157Y-34147D01*
X59157Y-33947D01*
X59157Y-33847D01*
X59157Y-33647D01*
X59088Y-33405D01*
X58933Y-33207D01*
X58713Y-33083D01*
X58663Y-33071D01*
X58563Y-33118D01*
X58563Y-33847D01*
X59157Y-33847D01*
X59157Y-33947D01*
X58563Y-33947D01*
X58563Y-34676D01*
X58663Y-34723D01*
X58713Y-34711D01*
X58933Y-34588D01*
X59088Y-34390D01*
X59157Y-34147D01*
X59157Y-35783D01*
X58463Y-35783D01*
X58463Y-34676D01*
X58463Y-33947D01*
X58463Y-33847D01*
X58463Y-33118D01*
X58363Y-33071D01*
X58313Y-33083D01*
X58093Y-33207D01*
X57938Y-33405D01*
X57870Y-33647D01*
X57870Y-33847D01*
X58463Y-33847D01*
X58463Y-33947D01*
X57870Y-33947D01*
X57870Y-34147D01*
X57938Y-34390D01*
X58093Y-34588D01*
X58313Y-34711D01*
X58363Y-34723D01*
X58463Y-34676D01*
X58463Y-35783D01*
X57189Y-35783D01*
X57189Y-34114D01*
X57189Y-33681D01*
X57140Y-33434D01*
X57000Y-33226D01*
X56791Y-33086D01*
X56545Y-33037D01*
X56299Y-33086D01*
X56090Y-33226D01*
X55951Y-33434D01*
X55902Y-33681D01*
X55902Y-34114D01*
X55951Y-34360D01*
X56090Y-34569D01*
X56299Y-34708D01*
X56545Y-34757D01*
X56791Y-34708D01*
X57000Y-34569D01*
X57140Y-34360D01*
X57189Y-34114D01*
X57189Y-35783D01*
X55575Y-35783D01*
X55575Y-36974D01*
X52248Y-36974D01*
X52248Y-36388D01*
X52248Y-36289D01*
X52248Y-34950D01*
X52210Y-34858D01*
X52139Y-34787D01*
X52047Y-34749D01*
X51948Y-34749D01*
X50609Y-34749D01*
X50517Y-34787D01*
X50447Y-34858D01*
X50409Y-34950D01*
X50409Y-35049D01*
X50409Y-36388D01*
X50447Y-36480D01*
X50517Y-36550D01*
X50609Y-36588D01*
X50708Y-36588D01*
X52047Y-36588D01*
X52139Y-36550D01*
X52210Y-36480D01*
X52248Y-36388D01*
X52248Y-36974D01*
X49801Y-36974D01*
X49801Y-36119D01*
X49801Y-36019D01*
X49801Y-35219D01*
X49763Y-35127D01*
X49693Y-35057D01*
X49601Y-35019D01*
X49501Y-35019D01*
X48701Y-35019D01*
X48609Y-35057D01*
X48539Y-35127D01*
X48533Y-35143D01*
X48532Y-35142D01*
X48302Y-35037D01*
X48201Y-35083D01*
X48201Y-35619D01*
X48209Y-35619D01*
X48209Y-35719D01*
X48201Y-35719D01*
X48201Y-36254D01*
X48302Y-36301D01*
X48532Y-36195D01*
X48533Y-36195D01*
X48539Y-36210D01*
X48609Y-36281D01*
X48701Y-36319D01*
X48801Y-36319D01*
X49601Y-36319D01*
X49693Y-36281D01*
X49763Y-36210D01*
X49801Y-36119D01*
X49801Y-36974D01*
X48101Y-36974D01*
X48101Y-36254D01*
X48101Y-35719D01*
X48101Y-35619D01*
X48101Y-35083D01*
X48000Y-35037D01*
X47770Y-35142D01*
X47597Y-35328D01*
X47519Y-35518D01*
X47566Y-35619D01*
X48101Y-35619D01*
X48101Y-35719D01*
X47566Y-35719D01*
X47519Y-35820D01*
X47597Y-36009D01*
X47770Y-36195D01*
X48000Y-36301D01*
X48101Y-36254D01*
X48101Y-36974D01*
X48008Y-36974D01*
X47786Y-36930D01*
X47619Y-36819D01*
X47508Y-36652D01*
X47464Y-36430D01*
X47464Y-32152D01*
X47508Y-31929D01*
X47619Y-31763D01*
X47786Y-31652D01*
X48008Y-31608D01*
X66853Y-31608D01*
X67076Y-31652D01*
X67242Y-31763D01*
X67353Y-31929D01*
X67397Y-32152D01*
X67397Y-36430D01*
X67397Y-36430D01*
G37*
G54D16*
X67397Y-36430D02*
X67353Y-36652D01*
X67342Y-36668D01*
X67342Y-35820D01*
X67342Y-35518D01*
X67264Y-35328D01*
X67091Y-35142D01*
X66861Y-35037D01*
X66760Y-35083D01*
X66760Y-35619D01*
X67295Y-35619D01*
X67342Y-35518D01*
X67342Y-35820D01*
X67295Y-35719D01*
X66760Y-35719D01*
X66760Y-36254D01*
X66861Y-36301D01*
X67091Y-36195D01*
X67264Y-36009D01*
X67342Y-35820D01*
X67342Y-36668D01*
X67242Y-36819D01*
X67076Y-36930D01*
X66853Y-36974D01*
X66660Y-36974D01*
X66660Y-36254D01*
X66660Y-35719D01*
X66652Y-35719D01*
X66652Y-35619D01*
X66660Y-35619D01*
X66660Y-35083D01*
X66559Y-35037D01*
X66329Y-35142D01*
X66329Y-35143D01*
X66322Y-35127D01*
X66252Y-35057D01*
X66160Y-35019D01*
X66060Y-35019D01*
X65260Y-35019D01*
X65169Y-35057D01*
X65098Y-35127D01*
X65060Y-35219D01*
X65060Y-35319D01*
X65060Y-36119D01*
X65098Y-36210D01*
X65169Y-36281D01*
X65260Y-36319D01*
X65360Y-36319D01*
X66160Y-36319D01*
X66252Y-36281D01*
X66322Y-36210D01*
X66329Y-36195D01*
X66329Y-36195D01*
X66559Y-36301D01*
X66660Y-36254D01*
X66660Y-36974D01*
X64452Y-36974D01*
X64452Y-36388D01*
X64452Y-36289D01*
X64452Y-34950D01*
X64414Y-34858D01*
X64344Y-34787D01*
X64252Y-34749D01*
X64153Y-34749D01*
X62814Y-34749D01*
X62722Y-34787D01*
X62652Y-34858D01*
X62613Y-34950D01*
X62613Y-35049D01*
X62613Y-36388D01*
X62652Y-36480D01*
X62722Y-36550D01*
X62814Y-36588D01*
X62913Y-36588D01*
X64252Y-36588D01*
X64344Y-36550D01*
X64414Y-36480D01*
X64452Y-36388D01*
X64452Y-36974D01*
X59286Y-36974D01*
X59286Y-35783D01*
X59157Y-35783D01*
X59157Y-34147D01*
X59157Y-33947D01*
X59157Y-33847D01*
X59157Y-33647D01*
X59088Y-33405D01*
X58933Y-33207D01*
X58713Y-33083D01*
X58663Y-33071D01*
X58563Y-33118D01*
X58563Y-33847D01*
X59157Y-33847D01*
X59157Y-33947D01*
X58563Y-33947D01*
X58563Y-34676D01*
X58663Y-34723D01*
X58713Y-34711D01*
X58933Y-34588D01*
X59088Y-34390D01*
X59157Y-34147D01*
X59157Y-35783D01*
X58463Y-35783D01*
X58463Y-34676D01*
X58463Y-33947D01*
X58463Y-33847D01*
X58463Y-33118D01*
X58363Y-33071D01*
X58313Y-33083D01*
X58093Y-33207D01*
X57938Y-33405D01*
X57870Y-33647D01*
X57870Y-33847D01*
X58463Y-33847D01*
X58463Y-33947D01*
X57870Y-33947D01*
X57870Y-34147D01*
X57938Y-34390D01*
X58093Y-34588D01*
X58313Y-34711D01*
X58363Y-34723D01*
X58463Y-34676D01*
X58463Y-35783D01*
X57189Y-35783D01*
X57189Y-34114D01*
X57189Y-33681D01*
X57140Y-33434D01*
X57000Y-33226D01*
X56791Y-33086D01*
X56545Y-33037D01*
X56299Y-33086D01*
X56090Y-33226D01*
X55951Y-33434D01*
X55902Y-33681D01*
X55902Y-34114D01*
X55951Y-34360D01*
X56090Y-34569D01*
X56299Y-34708D01*
X56545Y-34757D01*
X56791Y-34708D01*
X57000Y-34569D01*
X57140Y-34360D01*
X57189Y-34114D01*
X57189Y-35783D01*
X55575Y-35783D01*
X55575Y-36974D01*
X52248Y-36974D01*
X52248Y-36388D01*
X52248Y-36289D01*
X52248Y-34950D01*
X52210Y-34858D01*
X52139Y-34787D01*
X52047Y-34749D01*
X51948Y-34749D01*
X50609Y-34749D01*
X50517Y-34787D01*
X50447Y-34858D01*
X50409Y-34950D01*
X50409Y-35049D01*
X50409Y-36388D01*
X50447Y-36480D01*
X50517Y-36550D01*
X50609Y-36588D01*
X50708Y-36588D01*
X52047Y-36588D01*
X52139Y-36550D01*
X52210Y-36480D01*
X52248Y-36388D01*
X52248Y-36974D01*
X49801Y-36974D01*
X49801Y-36119D01*
X49801Y-36019D01*
X49801Y-35219D01*
X49763Y-35127D01*
X49693Y-35057D01*
X49601Y-35019D01*
X49501Y-35019D01*
X48701Y-35019D01*
X48609Y-35057D01*
X48539Y-35127D01*
X48533Y-35143D01*
X48532Y-35142D01*
X48302Y-35037D01*
X48201Y-35083D01*
X48201Y-35619D01*
X48209Y-35619D01*
X48209Y-35719D01*
X48201Y-35719D01*
X48201Y-36254D01*
X48302Y-36301D01*
X48532Y-36195D01*
X48533Y-36195D01*
X48539Y-36210D01*
X48609Y-36281D01*
X48701Y-36319D01*
X48801Y-36319D01*
X49601Y-36319D01*
X49693Y-36281D01*
X49763Y-36210D01*
X49801Y-36119D01*
X49801Y-36974D01*
X48101Y-36974D01*
X48101Y-36254D01*
X48101Y-35719D01*
X48101Y-35619D01*
X48101Y-35083D01*
X48000Y-35037D01*
X47770Y-35142D01*
X47597Y-35328D01*
X47519Y-35518D01*
X47566Y-35619D01*
X48101Y-35619D01*
X48101Y-35719D01*
X47566Y-35719D01*
X47519Y-35820D01*
X47597Y-36009D01*
X47770Y-36195D01*
X48000Y-36301D01*
X48101Y-36254D01*
X48101Y-36974D01*
X48008Y-36974D01*
X47786Y-36930D01*
X47619Y-36819D01*
X47508Y-36652D01*
X47464Y-36430D01*
X47464Y-32152D01*
X47508Y-31929D01*
X47619Y-31763D01*
X47786Y-31652D01*
X48008Y-31608D01*
X66853Y-31608D01*
X67076Y-31652D01*
X67242Y-31763D01*
X67353Y-31929D01*
X67397Y-32152D01*
X67397Y-36430D01*
M02*
