%FSLAX34Y34*%
G04 Gerber Fmt 3.4, Leading zero omitted, Abs format*
G04 (created by PCBNEW (2014-03-19 BZR 4756)-product) date Wed 16 Jul 2014 00:37:10 BST*
%MOIN*%
G01*
G70*
G90*
G04 APERTURE LIST*
%ADD10C,0.005906*%
%ADD11C,0.011811*%
%ADD12C,0.007874*%
G04 APERTURE END LIST*
G54D10*
G54D11*
X51975Y-33889D02*
X52256Y-33889D01*
X52284Y-34170D01*
X52256Y-34142D01*
X52200Y-34114D01*
X52059Y-34114D01*
X52003Y-34142D01*
X51975Y-34170D01*
X51947Y-34226D01*
X51947Y-34367D01*
X51975Y-34423D01*
X52003Y-34451D01*
X52059Y-34479D01*
X52200Y-34479D01*
X52256Y-34451D01*
X52284Y-34423D01*
X51778Y-33889D02*
X51581Y-34479D01*
X51384Y-33889D01*
X50822Y-33889D02*
X50625Y-34479D01*
X50428Y-33889D01*
X49978Y-34451D02*
X50035Y-34479D01*
X50147Y-34479D01*
X50203Y-34451D01*
X50232Y-34423D01*
X50260Y-34367D01*
X50260Y-34198D01*
X50232Y-34142D01*
X50203Y-34114D01*
X50147Y-34086D01*
X50035Y-34086D01*
X49978Y-34114D01*
X49472Y-34451D02*
X49528Y-34479D01*
X49641Y-34479D01*
X49697Y-34451D01*
X49725Y-34423D01*
X49753Y-34367D01*
X49753Y-34198D01*
X49725Y-34142D01*
X49697Y-34114D01*
X49641Y-34086D01*
X49528Y-34086D01*
X49472Y-34114D01*
X48741Y-34029D02*
X48741Y-34479D01*
X48713Y-34479D02*
X48713Y-34029D01*
X48685Y-34029D02*
X48685Y-34479D01*
X48657Y-34479D02*
X48657Y-34029D01*
X48629Y-34029D02*
X48629Y-34479D01*
X48600Y-34479D02*
X48600Y-34029D01*
X48572Y-34029D02*
X48572Y-34479D01*
X48544Y-34479D02*
X48544Y-34029D01*
X48516Y-34029D02*
X48516Y-34479D01*
X48488Y-34479D02*
X48488Y-34029D01*
X48460Y-34029D02*
X48460Y-34479D01*
X48432Y-34479D02*
X48432Y-34029D01*
X48404Y-34029D02*
X48404Y-34479D01*
X48375Y-34479D02*
X48375Y-34029D01*
X48347Y-34029D02*
X48347Y-34479D01*
X48769Y-34029D02*
X48319Y-34029D01*
X48319Y-34479D01*
X48769Y-34479D01*
X48769Y-34029D01*
X52875Y-34834D02*
X52509Y-34834D01*
X52706Y-35059D01*
X52622Y-35059D01*
X52566Y-35087D01*
X52537Y-35115D01*
X52509Y-35171D01*
X52509Y-35312D01*
X52537Y-35368D01*
X52566Y-35396D01*
X52622Y-35424D01*
X52791Y-35424D01*
X52847Y-35396D01*
X52875Y-35368D01*
X52341Y-34834D02*
X52144Y-35424D01*
X51947Y-34834D01*
X51806Y-34834D02*
X51441Y-34834D01*
X51638Y-35059D01*
X51553Y-35059D01*
X51497Y-35087D01*
X51469Y-35115D01*
X51441Y-35171D01*
X51441Y-35312D01*
X51469Y-35368D01*
X51497Y-35396D01*
X51553Y-35424D01*
X51722Y-35424D01*
X51778Y-35396D01*
X51806Y-35368D01*
X50822Y-34834D02*
X50625Y-35424D01*
X50428Y-34834D01*
X49978Y-35396D02*
X50035Y-35424D01*
X50147Y-35424D01*
X50203Y-35396D01*
X50232Y-35368D01*
X50260Y-35312D01*
X50260Y-35143D01*
X50232Y-35087D01*
X50203Y-35059D01*
X50147Y-35030D01*
X50035Y-35030D01*
X49978Y-35059D01*
X49472Y-35396D02*
X49528Y-35424D01*
X49641Y-35424D01*
X49697Y-35396D01*
X49725Y-35368D01*
X49753Y-35312D01*
X49753Y-35143D01*
X49725Y-35087D01*
X49697Y-35059D01*
X49641Y-35030D01*
X49528Y-35030D01*
X49472Y-35059D01*
X48741Y-34974D02*
X48741Y-35424D01*
X48713Y-35424D02*
X48713Y-34974D01*
X48685Y-34974D02*
X48685Y-35424D01*
X48657Y-35424D02*
X48657Y-34974D01*
X48629Y-34974D02*
X48629Y-35424D01*
X48600Y-35424D02*
X48600Y-34974D01*
X48572Y-34974D02*
X48572Y-35424D01*
X48544Y-35424D02*
X48544Y-34974D01*
X48516Y-34974D02*
X48516Y-35424D01*
X48488Y-35424D02*
X48488Y-34974D01*
X48460Y-34974D02*
X48460Y-35424D01*
X48432Y-35424D02*
X48432Y-34974D01*
X48404Y-34974D02*
X48404Y-35424D01*
X48375Y-35424D02*
X48375Y-34974D01*
X48347Y-34974D02*
X48347Y-35424D01*
X48769Y-34974D02*
X48319Y-34974D01*
X48319Y-35424D01*
X48769Y-35424D01*
X48769Y-34974D01*
X66148Y-34597D02*
X66148Y-34007D01*
X66008Y-34007D01*
X65923Y-34035D01*
X65867Y-34091D01*
X65839Y-34147D01*
X65811Y-34260D01*
X65811Y-34344D01*
X65839Y-34457D01*
X65867Y-34513D01*
X65923Y-34569D01*
X66008Y-34597D01*
X66148Y-34597D01*
X65220Y-34541D02*
X65248Y-34569D01*
X65333Y-34597D01*
X65389Y-34597D01*
X65473Y-34569D01*
X65530Y-34513D01*
X65558Y-34457D01*
X65586Y-34344D01*
X65586Y-34260D01*
X65558Y-34147D01*
X65530Y-34091D01*
X65473Y-34035D01*
X65389Y-34007D01*
X65333Y-34007D01*
X65248Y-34035D01*
X65220Y-34063D01*
X64967Y-34372D02*
X64517Y-34372D01*
X64236Y-34597D02*
X64236Y-34007D01*
X64095Y-34007D01*
X64011Y-34035D01*
X63955Y-34091D01*
X63927Y-34147D01*
X63899Y-34260D01*
X63899Y-34344D01*
X63927Y-34457D01*
X63955Y-34513D01*
X64011Y-34569D01*
X64095Y-34597D01*
X64236Y-34597D01*
X63308Y-34541D02*
X63336Y-34569D01*
X63420Y-34597D01*
X63477Y-34597D01*
X63561Y-34569D01*
X63617Y-34513D01*
X63645Y-34457D01*
X63674Y-34344D01*
X63674Y-34260D01*
X63645Y-34147D01*
X63617Y-34091D01*
X63561Y-34035D01*
X63477Y-34007D01*
X63420Y-34007D01*
X63336Y-34035D01*
X63308Y-34063D01*
X62267Y-34541D02*
X62296Y-34569D01*
X62380Y-34597D01*
X62436Y-34597D01*
X62521Y-34569D01*
X62577Y-34513D01*
X62605Y-34457D01*
X62633Y-34344D01*
X62633Y-34260D01*
X62605Y-34147D01*
X62577Y-34091D01*
X62521Y-34035D01*
X62436Y-34007D01*
X62380Y-34007D01*
X62296Y-34035D01*
X62267Y-34063D01*
X61930Y-34597D02*
X61986Y-34569D01*
X62014Y-34541D01*
X62043Y-34485D01*
X62043Y-34316D01*
X62014Y-34260D01*
X61986Y-34232D01*
X61930Y-34204D01*
X61846Y-34204D01*
X61789Y-34232D01*
X61761Y-34260D01*
X61733Y-34316D01*
X61733Y-34485D01*
X61761Y-34541D01*
X61789Y-34569D01*
X61846Y-34597D01*
X61930Y-34597D01*
X61480Y-34204D02*
X61480Y-34597D01*
X61480Y-34260D02*
X61452Y-34232D01*
X61396Y-34204D01*
X61311Y-34204D01*
X61255Y-34232D01*
X61227Y-34288D01*
X61227Y-34597D01*
X61002Y-34204D02*
X60861Y-34597D01*
X60721Y-34204D01*
X60271Y-34569D02*
X60327Y-34597D01*
X60440Y-34597D01*
X60496Y-34569D01*
X60524Y-34513D01*
X60524Y-34288D01*
X60496Y-34232D01*
X60440Y-34204D01*
X60327Y-34204D01*
X60271Y-34232D01*
X60243Y-34288D01*
X60243Y-34344D01*
X60524Y-34401D01*
X59990Y-34597D02*
X59990Y-34204D01*
X59990Y-34316D02*
X59962Y-34260D01*
X59933Y-34232D01*
X59877Y-34204D01*
X59821Y-34204D01*
X59708Y-34204D02*
X59483Y-34204D01*
X59624Y-34007D02*
X59624Y-34513D01*
X59596Y-34569D01*
X59540Y-34597D01*
X59483Y-34597D01*
X59062Y-34569D02*
X59118Y-34597D01*
X59230Y-34597D01*
X59287Y-34569D01*
X59315Y-34513D01*
X59315Y-34288D01*
X59287Y-34232D01*
X59230Y-34204D01*
X59118Y-34204D01*
X59062Y-34232D01*
X59034Y-34288D01*
X59034Y-34344D01*
X59315Y-34401D01*
X58780Y-34597D02*
X58780Y-34204D01*
X58780Y-34316D02*
X58752Y-34260D01*
X58724Y-34232D01*
X58668Y-34204D01*
X58612Y-34204D01*
X58415Y-34541D02*
X58387Y-34569D01*
X58415Y-34597D01*
X58443Y-34569D01*
X58415Y-34541D01*
X58415Y-34597D01*
X65895Y-35149D02*
X65895Y-35542D01*
X66036Y-34924D02*
X66176Y-35345D01*
X65811Y-35345D01*
X65136Y-35317D02*
X64686Y-35317D01*
X63702Y-35149D02*
X63702Y-35542D01*
X63842Y-34924D02*
X63983Y-35345D01*
X63617Y-35345D01*
X63280Y-34952D02*
X63224Y-34952D01*
X63167Y-34980D01*
X63139Y-35008D01*
X63111Y-35064D01*
X63083Y-35177D01*
X63083Y-35317D01*
X63111Y-35430D01*
X63139Y-35486D01*
X63167Y-35514D01*
X63224Y-35542D01*
X63280Y-35542D01*
X63336Y-35514D01*
X63364Y-35486D01*
X63392Y-35430D01*
X63420Y-35317D01*
X63420Y-35177D01*
X63392Y-35064D01*
X63364Y-35008D01*
X63336Y-34980D01*
X63280Y-34952D01*
X62914Y-34952D02*
X62717Y-35542D01*
X62521Y-34952D01*
X61874Y-35542D02*
X61874Y-34952D01*
X61593Y-35149D02*
X61593Y-35542D01*
X61593Y-35205D02*
X61564Y-35177D01*
X61508Y-35149D01*
X61424Y-35149D01*
X61368Y-35177D01*
X61339Y-35233D01*
X61339Y-35542D01*
X61058Y-35486D02*
X61030Y-35514D01*
X61058Y-35542D01*
X61086Y-35514D01*
X61058Y-35486D01*
X61058Y-35542D01*
X66205Y-35897D02*
X65839Y-35897D01*
X66036Y-36122D01*
X65951Y-36122D01*
X65895Y-36150D01*
X65867Y-36178D01*
X65839Y-36234D01*
X65839Y-36375D01*
X65867Y-36431D01*
X65895Y-36459D01*
X65951Y-36487D01*
X66120Y-36487D01*
X66176Y-36459D01*
X66205Y-36431D01*
X65670Y-35897D02*
X65473Y-36487D01*
X65276Y-35897D01*
X65136Y-35897D02*
X64770Y-35897D01*
X64967Y-36122D01*
X64883Y-36122D01*
X64827Y-36150D01*
X64798Y-36178D01*
X64770Y-36234D01*
X64770Y-36375D01*
X64798Y-36431D01*
X64827Y-36459D01*
X64883Y-36487D01*
X65052Y-36487D01*
X65108Y-36459D01*
X65136Y-36431D01*
X63955Y-35897D02*
X63842Y-35897D01*
X63786Y-35925D01*
X63730Y-35981D01*
X63702Y-36093D01*
X63702Y-36290D01*
X63730Y-36403D01*
X63786Y-36459D01*
X63842Y-36487D01*
X63955Y-36487D01*
X64011Y-36459D01*
X64067Y-36403D01*
X64095Y-36290D01*
X64095Y-36093D01*
X64067Y-35981D01*
X64011Y-35925D01*
X63955Y-35897D01*
X63196Y-36093D02*
X63196Y-36487D01*
X63449Y-36093D02*
X63449Y-36403D01*
X63420Y-36459D01*
X63364Y-36487D01*
X63280Y-36487D01*
X63224Y-36459D01*
X63196Y-36431D01*
X62999Y-36093D02*
X62774Y-36093D01*
X62914Y-35897D02*
X62914Y-36403D01*
X62886Y-36459D01*
X62830Y-36487D01*
X62774Y-36487D01*
X62577Y-36431D02*
X62549Y-36459D01*
X62577Y-36487D01*
X62605Y-36459D01*
X62577Y-36431D01*
X62577Y-36487D01*
G54D12*
X47769Y-38307D02*
X47799Y-38292D01*
X47844Y-38292D01*
X47889Y-38307D01*
X47919Y-38337D01*
X47934Y-38367D01*
X47949Y-38427D01*
X47949Y-38472D01*
X47934Y-38532D01*
X47919Y-38562D01*
X47889Y-38592D01*
X47844Y-38607D01*
X47814Y-38607D01*
X47769Y-38592D01*
X47754Y-38577D01*
X47754Y-38472D01*
X47814Y-38472D01*
X47619Y-38607D02*
X47619Y-38292D01*
X47439Y-38607D01*
X47439Y-38292D01*
X47289Y-38607D02*
X47289Y-38292D01*
X47214Y-38292D01*
X47169Y-38307D01*
X47139Y-38337D01*
X47124Y-38367D01*
X47109Y-38427D01*
X47109Y-38472D01*
X47124Y-38532D01*
X47139Y-38562D01*
X47169Y-38592D01*
X47214Y-38607D01*
X47289Y-38607D01*
X48933Y-38292D02*
X48828Y-38607D01*
X48723Y-38292D01*
X48438Y-38577D02*
X48453Y-38592D01*
X48498Y-38607D01*
X48528Y-38607D01*
X48573Y-38592D01*
X48603Y-38562D01*
X48618Y-38532D01*
X48633Y-38472D01*
X48633Y-38427D01*
X48618Y-38367D01*
X48603Y-38337D01*
X48573Y-38307D01*
X48528Y-38292D01*
X48498Y-38292D01*
X48453Y-38307D01*
X48438Y-38322D01*
X48123Y-38577D02*
X48138Y-38592D01*
X48183Y-38607D01*
X48213Y-38607D01*
X48258Y-38592D01*
X48288Y-38562D01*
X48303Y-38532D01*
X48318Y-38472D01*
X48318Y-38427D01*
X48303Y-38367D01*
X48288Y-38337D01*
X48258Y-38307D01*
X48213Y-38292D01*
X48183Y-38292D01*
X48138Y-38307D01*
X48123Y-38322D01*
X65528Y-38351D02*
X65423Y-38666D01*
X65318Y-38351D01*
X65033Y-38636D02*
X65048Y-38651D01*
X65093Y-38666D01*
X65123Y-38666D01*
X65168Y-38651D01*
X65198Y-38621D01*
X65213Y-38591D01*
X65228Y-38531D01*
X65228Y-38486D01*
X65213Y-38426D01*
X65198Y-38396D01*
X65168Y-38366D01*
X65123Y-38351D01*
X65093Y-38351D01*
X65048Y-38366D01*
X65033Y-38381D01*
X64718Y-38636D02*
X64733Y-38651D01*
X64778Y-38666D01*
X64808Y-38666D01*
X64853Y-38651D01*
X64883Y-38621D01*
X64898Y-38591D01*
X64913Y-38531D01*
X64913Y-38486D01*
X64898Y-38426D01*
X64883Y-38396D01*
X64853Y-38366D01*
X64808Y-38351D01*
X64778Y-38351D01*
X64733Y-38366D01*
X64718Y-38381D01*
X66332Y-38366D02*
X66362Y-38351D01*
X66407Y-38351D01*
X66452Y-38366D01*
X66482Y-38396D01*
X66497Y-38426D01*
X66512Y-38486D01*
X66512Y-38531D01*
X66497Y-38591D01*
X66482Y-38621D01*
X66452Y-38651D01*
X66407Y-38666D01*
X66377Y-38666D01*
X66332Y-38651D01*
X66317Y-38636D01*
X66317Y-38531D01*
X66377Y-38531D01*
X66182Y-38666D02*
X66182Y-38351D01*
X66002Y-38666D01*
X66002Y-38351D01*
X65852Y-38666D02*
X65852Y-38351D01*
X65777Y-38351D01*
X65732Y-38366D01*
X65702Y-38396D01*
X65687Y-38426D01*
X65672Y-38486D01*
X65672Y-38531D01*
X65687Y-38591D01*
X65702Y-38621D01*
X65732Y-38651D01*
X65777Y-38666D01*
X65852Y-38666D01*
M02*
