%FSLAX34Y34*%
G04 Gerber Fmt 3.4, Leading zero omitted, Abs format*
G04 (created by PCBNEW (2014-03-19 BZR 4756)-product) date Fri 20 Jun 2014 08:00:44 BST*
%MOIN*%
G01*
G70*
G90*
G04 APERTURE LIST*
%ADD10C,0.005906*%
%ADD11R,0.080000X0.080000*%
%ADD12O,0.080000X0.080000*%
%ADD13R,0.133900X0.133900*%
%ADD14R,0.141700X0.063000*%
%ADD15R,0.015700X0.023600*%
%ADD16R,0.063000X0.141700*%
%ADD17R,0.039400X0.031500*%
%ADD18R,0.045000X0.025000*%
%ADD19R,0.080000X0.060000*%
%ADD20R,0.070866X0.228346*%
%ADD21R,0.047200X0.023600*%
%ADD22O,0.078700X0.118700*%
%ADD23C,0.010000*%
G04 APERTURE END LIST*
G54D10*
G54D11*
X65710Y-35669D03*
G54D12*
X66710Y-35669D03*
G54D11*
X49151Y-35669D03*
G54D12*
X48151Y-35669D03*
G54D13*
X51328Y-35669D03*
X63533Y-35669D03*
G54D14*
X64517Y-33110D03*
X66683Y-33110D03*
G54D15*
X62332Y-35964D03*
X61978Y-35964D03*
X60895Y-33011D03*
X61249Y-33011D03*
G54D16*
X53986Y-35571D03*
X53986Y-33405D03*
G54D17*
X63277Y-32618D03*
X62411Y-32993D03*
X62411Y-32243D03*
G54D18*
X47982Y-34492D03*
X47982Y-33892D03*
G54D19*
X49064Y-33247D03*
X49064Y-34547D03*
G54D20*
X52017Y-33307D03*
X50246Y-33307D03*
G54D15*
X60364Y-33011D03*
X60010Y-33011D03*
X48257Y-33208D03*
X47903Y-33208D03*
G54D21*
X60029Y-33740D03*
X60029Y-34232D03*
X60029Y-34744D03*
X60029Y-35236D03*
X62313Y-35236D03*
X62313Y-34744D03*
X62313Y-34232D03*
X62313Y-33720D03*
G54D22*
X56545Y-33897D03*
X58513Y-33897D03*
G54D23*
X62313Y-34232D02*
X62699Y-34232D01*
X64517Y-33110D02*
X63658Y-33110D01*
X62699Y-34069D02*
X62699Y-34232D01*
X63658Y-33110D02*
X62699Y-34069D01*
X61927Y-33131D02*
X61927Y-34232D01*
X61136Y-32340D02*
X61927Y-33131D01*
X58646Y-32340D02*
X61136Y-32340D01*
X57089Y-33897D02*
X58646Y-32340D01*
X56545Y-33897D02*
X57089Y-33897D01*
X62313Y-34232D02*
X61927Y-34232D01*
X48151Y-35669D02*
X48151Y-35119D01*
X66710Y-35669D02*
X66710Y-35119D01*
X62313Y-34744D02*
X62699Y-34744D01*
X66710Y-35119D02*
X66429Y-34837D01*
X62793Y-34837D02*
X62699Y-34744D01*
X66429Y-34837D02*
X62793Y-34837D01*
X47982Y-34949D02*
X48151Y-35119D01*
X47982Y-34492D02*
X47982Y-34949D01*
X66683Y-34583D02*
X66429Y-34837D01*
X66683Y-33110D02*
X66683Y-34583D01*
X66281Y-32243D02*
X62411Y-32243D01*
X66683Y-32645D02*
X66281Y-32243D01*
X66683Y-33110D02*
X66683Y-32645D01*
X61249Y-32983D02*
X61249Y-32743D01*
X61249Y-32983D02*
X61249Y-33011D01*
X61249Y-34066D02*
X61927Y-34744D01*
X61249Y-33011D02*
X61249Y-34066D01*
X62313Y-34744D02*
X61977Y-34744D01*
X61977Y-34744D02*
X61927Y-34744D01*
X61927Y-35645D02*
X61978Y-35696D01*
X61927Y-34744D02*
X61927Y-35645D01*
X61978Y-35964D02*
X61978Y-35696D01*
X53986Y-33405D02*
X54451Y-33405D01*
X55687Y-34641D02*
X54451Y-33405D01*
X57226Y-34641D02*
X55687Y-34641D01*
X57969Y-33897D02*
X57226Y-34641D01*
X58513Y-33897D02*
X58513Y-33154D01*
X58513Y-33897D02*
X57969Y-33897D01*
X61049Y-32543D02*
X61249Y-32743D01*
X59123Y-32543D02*
X61049Y-32543D01*
X58513Y-33154D02*
X59123Y-32543D01*
X62699Y-35826D02*
X62561Y-35964D01*
X62699Y-35236D02*
X62699Y-35826D01*
X62313Y-35236D02*
X62699Y-35236D01*
X62332Y-35964D02*
X62561Y-35964D01*
X60667Y-33980D02*
X60667Y-33011D01*
X60415Y-34232D02*
X60667Y-33980D01*
X60029Y-34232D02*
X60415Y-34232D01*
X60895Y-33011D02*
X60667Y-33011D01*
X64340Y-36488D02*
X65160Y-35669D01*
X50521Y-36488D02*
X64340Y-36488D01*
X49701Y-35669D02*
X50521Y-36488D01*
X49151Y-35669D02*
X49701Y-35669D01*
X65710Y-35669D02*
X65160Y-35669D01*
X49151Y-35669D02*
X49151Y-35119D01*
X49064Y-35032D02*
X49064Y-34547D01*
X49151Y-35119D02*
X49064Y-35032D01*
X48878Y-34097D02*
X48257Y-33476D01*
X49064Y-34097D02*
X48878Y-34097D01*
X49064Y-34547D02*
X49064Y-34097D01*
X48257Y-33208D02*
X48257Y-33476D01*
X62483Y-33300D02*
X62411Y-33300D01*
X62699Y-33516D02*
X62483Y-33300D01*
X62699Y-33720D02*
X62699Y-33516D01*
X62103Y-32685D02*
X62411Y-32685D01*
X61433Y-32015D02*
X62103Y-32685D01*
X52017Y-32015D02*
X61433Y-32015D01*
X52017Y-33307D02*
X52017Y-32015D01*
X62411Y-32993D02*
X62411Y-32685D01*
X62313Y-33720D02*
X62699Y-33720D01*
X62411Y-32993D02*
X62411Y-33300D01*
X59643Y-33378D02*
X60010Y-33011D01*
X59643Y-33740D02*
X59643Y-33378D01*
X60029Y-33740D02*
X59643Y-33740D01*
X50496Y-34849D02*
X50246Y-34598D01*
X52799Y-34849D02*
X50496Y-34849D01*
X53521Y-35571D02*
X52799Y-34849D01*
X53986Y-35571D02*
X53521Y-35571D01*
X50246Y-33307D02*
X50246Y-33652D01*
X50246Y-33652D02*
X50246Y-34598D01*
X50019Y-33652D02*
X49615Y-33247D01*
X50246Y-33652D02*
X50019Y-33652D01*
X49064Y-33247D02*
X49615Y-33247D01*
X53986Y-35571D02*
X54451Y-35571D01*
X60029Y-34744D02*
X59643Y-34744D01*
X54786Y-35236D02*
X59643Y-35236D01*
X54451Y-35571D02*
X54786Y-35236D01*
X59643Y-35236D02*
X60029Y-35236D01*
X59643Y-35236D02*
X59643Y-34744D01*
X59869Y-32743D02*
X60364Y-32743D01*
X59438Y-33174D02*
X59869Y-32743D01*
X59438Y-34539D02*
X59438Y-33174D01*
X59643Y-34744D02*
X59438Y-34539D01*
X60364Y-33011D02*
X60364Y-32743D01*
X47903Y-33539D02*
X47903Y-33208D01*
X47982Y-33617D02*
X47903Y-33539D01*
X47982Y-33892D02*
X47982Y-33617D01*
G54D10*
G36*
X59548Y-32640D02*
X59226Y-32962D01*
X59161Y-33059D01*
X59138Y-33174D01*
X59138Y-33581D01*
X59088Y-33405D01*
X58933Y-33207D01*
X58713Y-33083D01*
X58663Y-33071D01*
X58563Y-33118D01*
X58563Y-33847D01*
X58571Y-33847D01*
X58571Y-33947D01*
X58563Y-33947D01*
X58563Y-34676D01*
X58663Y-34723D01*
X58713Y-34711D01*
X58933Y-34588D01*
X59088Y-34390D01*
X59138Y-34213D01*
X59138Y-34539D01*
X59161Y-34654D01*
X59226Y-34751D01*
X59343Y-34868D01*
X59343Y-34936D01*
X58463Y-34936D01*
X58463Y-34676D01*
X58463Y-33947D01*
X57870Y-33947D01*
X57870Y-34147D01*
X57938Y-34390D01*
X58093Y-34588D01*
X58313Y-34711D01*
X58363Y-34723D01*
X58463Y-34676D01*
X58463Y-34936D01*
X54786Y-34936D01*
X54671Y-34959D01*
X54574Y-35024D01*
X54551Y-35047D01*
X54551Y-34812D01*
X54551Y-34163D01*
X54551Y-33517D01*
X54551Y-33292D01*
X54551Y-32646D01*
X54513Y-32555D01*
X54442Y-32484D01*
X54350Y-32446D01*
X54251Y-32446D01*
X54098Y-32446D01*
X54036Y-32509D01*
X54036Y-33355D01*
X54488Y-33355D01*
X54551Y-33292D01*
X54551Y-33517D01*
X54488Y-33455D01*
X54036Y-33455D01*
X54036Y-34301D01*
X54098Y-34363D01*
X54251Y-34363D01*
X54350Y-34363D01*
X54442Y-34325D01*
X54513Y-34255D01*
X54551Y-34163D01*
X54551Y-34812D01*
X54513Y-34721D01*
X54442Y-34650D01*
X54350Y-34612D01*
X54251Y-34612D01*
X53936Y-34612D01*
X53936Y-34301D01*
X53936Y-33455D01*
X53936Y-33355D01*
X53936Y-32509D01*
X53873Y-32446D01*
X53720Y-32446D01*
X53621Y-32446D01*
X53529Y-32484D01*
X53459Y-32555D01*
X53421Y-32646D01*
X53421Y-33292D01*
X53483Y-33355D01*
X53936Y-33355D01*
X53936Y-33455D01*
X53483Y-33455D01*
X53421Y-33517D01*
X53421Y-34163D01*
X53459Y-34255D01*
X53529Y-34325D01*
X53621Y-34363D01*
X53720Y-34363D01*
X53873Y-34363D01*
X53936Y-34301D01*
X53936Y-34612D01*
X53621Y-34612D01*
X53529Y-34650D01*
X53459Y-34721D01*
X53421Y-34812D01*
X53421Y-34912D01*
X53421Y-35047D01*
X53011Y-34637D01*
X52914Y-34572D01*
X52799Y-34549D01*
X52600Y-34549D01*
X52622Y-34498D01*
X52622Y-34399D01*
X52622Y-32315D01*
X58247Y-32315D01*
X57135Y-33427D01*
X57000Y-33226D01*
X56791Y-33086D01*
X56545Y-33037D01*
X56299Y-33086D01*
X56090Y-33226D01*
X55951Y-33434D01*
X55902Y-33681D01*
X55902Y-34114D01*
X55951Y-34360D01*
X56090Y-34569D01*
X56299Y-34708D01*
X56545Y-34757D01*
X56791Y-34708D01*
X57000Y-34569D01*
X57140Y-34360D01*
X57175Y-34180D01*
X57203Y-34174D01*
X57203Y-34174D01*
X57301Y-34109D01*
X57911Y-33499D01*
X57870Y-33647D01*
X57870Y-33847D01*
X58463Y-33847D01*
X58463Y-33118D01*
X58363Y-33071D01*
X58331Y-33079D01*
X58770Y-32640D01*
X59548Y-32640D01*
X59548Y-32640D01*
G37*
G54D23*
X59548Y-32640D02*
X59226Y-32962D01*
X59161Y-33059D01*
X59138Y-33174D01*
X59138Y-33581D01*
X59088Y-33405D01*
X58933Y-33207D01*
X58713Y-33083D01*
X58663Y-33071D01*
X58563Y-33118D01*
X58563Y-33847D01*
X58571Y-33847D01*
X58571Y-33947D01*
X58563Y-33947D01*
X58563Y-34676D01*
X58663Y-34723D01*
X58713Y-34711D01*
X58933Y-34588D01*
X59088Y-34390D01*
X59138Y-34213D01*
X59138Y-34539D01*
X59161Y-34654D01*
X59226Y-34751D01*
X59343Y-34868D01*
X59343Y-34936D01*
X58463Y-34936D01*
X58463Y-34676D01*
X58463Y-33947D01*
X57870Y-33947D01*
X57870Y-34147D01*
X57938Y-34390D01*
X58093Y-34588D01*
X58313Y-34711D01*
X58363Y-34723D01*
X58463Y-34676D01*
X58463Y-34936D01*
X54786Y-34936D01*
X54671Y-34959D01*
X54574Y-35024D01*
X54551Y-35047D01*
X54551Y-34812D01*
X54551Y-34163D01*
X54551Y-33517D01*
X54551Y-33292D01*
X54551Y-32646D01*
X54513Y-32555D01*
X54442Y-32484D01*
X54350Y-32446D01*
X54251Y-32446D01*
X54098Y-32446D01*
X54036Y-32509D01*
X54036Y-33355D01*
X54488Y-33355D01*
X54551Y-33292D01*
X54551Y-33517D01*
X54488Y-33455D01*
X54036Y-33455D01*
X54036Y-34301D01*
X54098Y-34363D01*
X54251Y-34363D01*
X54350Y-34363D01*
X54442Y-34325D01*
X54513Y-34255D01*
X54551Y-34163D01*
X54551Y-34812D01*
X54513Y-34721D01*
X54442Y-34650D01*
X54350Y-34612D01*
X54251Y-34612D01*
X53936Y-34612D01*
X53936Y-34301D01*
X53936Y-33455D01*
X53936Y-33355D01*
X53936Y-32509D01*
X53873Y-32446D01*
X53720Y-32446D01*
X53621Y-32446D01*
X53529Y-32484D01*
X53459Y-32555D01*
X53421Y-32646D01*
X53421Y-33292D01*
X53483Y-33355D01*
X53936Y-33355D01*
X53936Y-33455D01*
X53483Y-33455D01*
X53421Y-33517D01*
X53421Y-34163D01*
X53459Y-34255D01*
X53529Y-34325D01*
X53621Y-34363D01*
X53720Y-34363D01*
X53873Y-34363D01*
X53936Y-34301D01*
X53936Y-34612D01*
X53621Y-34612D01*
X53529Y-34650D01*
X53459Y-34721D01*
X53421Y-34812D01*
X53421Y-34912D01*
X53421Y-35047D01*
X53011Y-34637D01*
X52914Y-34572D01*
X52799Y-34549D01*
X52600Y-34549D01*
X52622Y-34498D01*
X52622Y-34399D01*
X52622Y-32315D01*
X58247Y-32315D01*
X57135Y-33427D01*
X57000Y-33226D01*
X56791Y-33086D01*
X56545Y-33037D01*
X56299Y-33086D01*
X56090Y-33226D01*
X55951Y-33434D01*
X55902Y-33681D01*
X55902Y-34114D01*
X55951Y-34360D01*
X56090Y-34569D01*
X56299Y-34708D01*
X56545Y-34757D01*
X56791Y-34708D01*
X57000Y-34569D01*
X57140Y-34360D01*
X57175Y-34180D01*
X57203Y-34174D01*
X57203Y-34174D01*
X57301Y-34109D01*
X57911Y-33499D01*
X57870Y-33647D01*
X57870Y-33847D01*
X58463Y-33847D01*
X58463Y-33118D01*
X58363Y-33071D01*
X58331Y-33079D01*
X58770Y-32640D01*
X59548Y-32640D01*
G54D10*
G36*
X67397Y-36430D02*
X67353Y-36652D01*
X67342Y-36668D01*
X67342Y-35820D01*
X67342Y-35518D01*
X67264Y-35328D01*
X67091Y-35142D01*
X66861Y-35037D01*
X66760Y-35083D01*
X66760Y-35619D01*
X67295Y-35619D01*
X67342Y-35518D01*
X67342Y-35820D01*
X67295Y-35719D01*
X66760Y-35719D01*
X66760Y-36254D01*
X66861Y-36301D01*
X67091Y-36195D01*
X67264Y-36009D01*
X67342Y-35820D01*
X67342Y-36668D01*
X67242Y-36819D01*
X67076Y-36930D01*
X66853Y-36974D01*
X66660Y-36974D01*
X66660Y-36254D01*
X66660Y-35719D01*
X66652Y-35719D01*
X66652Y-35619D01*
X66660Y-35619D01*
X66660Y-35083D01*
X66633Y-35071D01*
X66633Y-33612D01*
X66633Y-33160D01*
X66633Y-33060D01*
X66633Y-32607D01*
X66570Y-32545D01*
X65925Y-32545D01*
X65833Y-32583D01*
X65762Y-32653D01*
X65724Y-32745D01*
X65724Y-32844D01*
X65724Y-32997D01*
X65787Y-33060D01*
X66633Y-33060D01*
X66633Y-33160D01*
X65787Y-33160D01*
X65724Y-33222D01*
X65724Y-33375D01*
X65724Y-33474D01*
X65762Y-33566D01*
X65833Y-33637D01*
X65925Y-33675D01*
X66570Y-33675D01*
X66633Y-33612D01*
X66633Y-35071D01*
X66559Y-35037D01*
X66329Y-35142D01*
X66329Y-35143D01*
X66322Y-35127D01*
X66252Y-35057D01*
X66160Y-35019D01*
X66060Y-35019D01*
X65260Y-35019D01*
X65169Y-35057D01*
X65098Y-35127D01*
X65060Y-35219D01*
X65060Y-35319D01*
X65060Y-35389D01*
X65045Y-35392D01*
X64948Y-35457D01*
X64452Y-35952D01*
X64452Y-34950D01*
X64414Y-34858D01*
X64344Y-34787D01*
X64252Y-34749D01*
X64153Y-34749D01*
X62814Y-34749D01*
X62722Y-34787D01*
X62716Y-34794D01*
X62363Y-34794D01*
X62363Y-34802D01*
X62263Y-34802D01*
X62263Y-34794D01*
X61889Y-34794D01*
X61827Y-34856D01*
X61827Y-34911D01*
X61859Y-34990D01*
X61827Y-35068D01*
X61827Y-35167D01*
X61827Y-35403D01*
X61865Y-35495D01*
X61935Y-35566D01*
X62027Y-35604D01*
X62072Y-35604D01*
X62017Y-35659D01*
X62017Y-35763D01*
X62004Y-35796D01*
X62004Y-35896D01*
X62004Y-36022D01*
X61939Y-36022D01*
X61939Y-36014D01*
X61939Y-35914D01*
X61939Y-35659D01*
X61876Y-35596D01*
X61850Y-35596D01*
X61758Y-35634D01*
X61688Y-35704D01*
X61650Y-35796D01*
X61650Y-35852D01*
X61712Y-35914D01*
X61939Y-35914D01*
X61939Y-36014D01*
X61712Y-36014D01*
X61650Y-36077D01*
X61650Y-36132D01*
X61673Y-36188D01*
X54551Y-36188D01*
X54551Y-35851D01*
X54566Y-35848D01*
X54566Y-35848D01*
X54663Y-35783D01*
X54910Y-35536D01*
X59621Y-35536D01*
X59651Y-35566D01*
X59743Y-35604D01*
X59842Y-35604D01*
X60314Y-35604D01*
X60406Y-35566D01*
X60477Y-35495D01*
X60515Y-35403D01*
X60515Y-35304D01*
X60515Y-35068D01*
X60482Y-34990D01*
X60515Y-34911D01*
X60515Y-34812D01*
X60515Y-34576D01*
X60490Y-34517D01*
X60530Y-34509D01*
X60530Y-34509D01*
X60627Y-34444D01*
X60879Y-34192D01*
X60879Y-34192D01*
X60944Y-34095D01*
X60967Y-33980D01*
X60967Y-33980D01*
X60967Y-33379D01*
X61024Y-33379D01*
X61072Y-33359D01*
X61121Y-33379D01*
X61148Y-33379D01*
X61210Y-33317D01*
X61210Y-33212D01*
X61224Y-33179D01*
X61224Y-33080D01*
X61224Y-32953D01*
X61289Y-32953D01*
X61289Y-32961D01*
X61307Y-32961D01*
X61307Y-33061D01*
X61289Y-33061D01*
X61289Y-33317D01*
X61351Y-33379D01*
X61378Y-33379D01*
X61469Y-33341D01*
X61540Y-33271D01*
X61570Y-33198D01*
X61627Y-33255D01*
X61627Y-34232D01*
X61650Y-34347D01*
X61715Y-34444D01*
X61812Y-34509D01*
X61851Y-34517D01*
X61827Y-34576D01*
X61827Y-34631D01*
X61889Y-34694D01*
X62263Y-34694D01*
X62263Y-34686D01*
X62363Y-34686D01*
X62363Y-34694D01*
X62736Y-34694D01*
X62799Y-34631D01*
X62799Y-34576D01*
X62774Y-34517D01*
X62814Y-34509D01*
X62911Y-34444D01*
X62976Y-34347D01*
X62999Y-34232D01*
X62999Y-34193D01*
X63611Y-33581D01*
X63667Y-33637D01*
X63759Y-33675D01*
X63858Y-33675D01*
X65275Y-33675D01*
X65367Y-33637D01*
X65437Y-33566D01*
X65475Y-33474D01*
X65475Y-33375D01*
X65475Y-32745D01*
X65437Y-32653D01*
X65367Y-32583D01*
X65275Y-32545D01*
X65176Y-32545D01*
X63759Y-32545D01*
X63724Y-32559D01*
X63724Y-32410D01*
X63686Y-32318D01*
X63616Y-32248D01*
X63524Y-32210D01*
X63424Y-32210D01*
X63030Y-32210D01*
X62938Y-32248D01*
X62868Y-32318D01*
X62858Y-32343D01*
X62858Y-32130D01*
X62858Y-32035D01*
X62820Y-31943D01*
X62750Y-31873D01*
X62658Y-31835D01*
X62558Y-31835D01*
X62523Y-31835D01*
X62461Y-31898D01*
X62461Y-32193D01*
X62795Y-32193D01*
X62858Y-32130D01*
X62858Y-32343D01*
X62854Y-32351D01*
X62795Y-32293D01*
X62461Y-32293D01*
X62461Y-32300D01*
X62361Y-32300D01*
X62361Y-32293D01*
X62353Y-32293D01*
X62353Y-32193D01*
X62361Y-32193D01*
X62361Y-31898D01*
X62298Y-31835D01*
X62264Y-31835D01*
X62164Y-31835D01*
X62072Y-31873D01*
X62002Y-31943D01*
X61964Y-32035D01*
X61964Y-32121D01*
X61645Y-31803D01*
X61548Y-31738D01*
X61433Y-31715D01*
X52017Y-31715D01*
X51902Y-31738D01*
X51805Y-31803D01*
X51740Y-31900D01*
X51737Y-31915D01*
X51613Y-31915D01*
X51521Y-31953D01*
X51451Y-32023D01*
X51413Y-32115D01*
X51413Y-32215D01*
X51413Y-34498D01*
X51434Y-34549D01*
X50829Y-34549D01*
X50850Y-34498D01*
X50850Y-34399D01*
X50850Y-32115D01*
X50812Y-32023D01*
X50742Y-31953D01*
X50650Y-31915D01*
X50550Y-31915D01*
X49842Y-31915D01*
X49750Y-31953D01*
X49679Y-32023D01*
X49641Y-32115D01*
X49641Y-32215D01*
X49641Y-32770D01*
X49606Y-32735D01*
X49514Y-32697D01*
X49415Y-32697D01*
X48615Y-32697D01*
X48523Y-32735D01*
X48453Y-32806D01*
X48430Y-32859D01*
X48385Y-32840D01*
X48286Y-32840D01*
X48129Y-32840D01*
X48080Y-32860D01*
X48031Y-32840D01*
X47932Y-32840D01*
X47775Y-32840D01*
X47683Y-32878D01*
X47613Y-32949D01*
X47575Y-33040D01*
X47575Y-33140D01*
X47575Y-33376D01*
X47603Y-33445D01*
X47603Y-33539D01*
X47608Y-33563D01*
X47545Y-33626D01*
X47507Y-33718D01*
X47507Y-33817D01*
X47507Y-34067D01*
X47545Y-34159D01*
X47578Y-34192D01*
X47545Y-34226D01*
X47507Y-34318D01*
X47507Y-34380D01*
X47569Y-34442D01*
X47932Y-34442D01*
X47932Y-34435D01*
X48032Y-34435D01*
X48032Y-34442D01*
X48040Y-34442D01*
X48040Y-34542D01*
X48032Y-34542D01*
X48032Y-34805D01*
X48094Y-34867D01*
X48157Y-34867D01*
X48257Y-34867D01*
X48348Y-34829D01*
X48414Y-34763D01*
X48414Y-34897D01*
X48453Y-34989D01*
X48523Y-35059D01*
X48583Y-35084D01*
X48539Y-35127D01*
X48533Y-35143D01*
X48532Y-35142D01*
X48302Y-35037D01*
X48201Y-35083D01*
X48201Y-35619D01*
X48209Y-35619D01*
X48209Y-35719D01*
X48201Y-35719D01*
X48201Y-36254D01*
X48302Y-36301D01*
X48532Y-36195D01*
X48533Y-36195D01*
X48539Y-36210D01*
X48609Y-36281D01*
X48701Y-36319D01*
X48801Y-36319D01*
X49601Y-36319D01*
X49693Y-36281D01*
X49763Y-36210D01*
X49779Y-36171D01*
X50309Y-36701D01*
X50309Y-36701D01*
X50406Y-36766D01*
X50521Y-36788D01*
X64340Y-36788D01*
X64340Y-36788D01*
X64455Y-36766D01*
X64455Y-36766D01*
X64552Y-36701D01*
X65082Y-36171D01*
X65098Y-36210D01*
X65169Y-36281D01*
X65260Y-36319D01*
X65360Y-36319D01*
X66160Y-36319D01*
X66252Y-36281D01*
X66322Y-36210D01*
X66329Y-36195D01*
X66329Y-36195D01*
X66559Y-36301D01*
X66660Y-36254D01*
X66660Y-36974D01*
X48101Y-36974D01*
X48101Y-36254D01*
X48101Y-35719D01*
X48101Y-35619D01*
X48101Y-35083D01*
X48000Y-35037D01*
X47932Y-35068D01*
X47932Y-34805D01*
X47932Y-34542D01*
X47569Y-34542D01*
X47507Y-34605D01*
X47507Y-34667D01*
X47545Y-34759D01*
X47615Y-34829D01*
X47707Y-34867D01*
X47807Y-34867D01*
X47869Y-34867D01*
X47932Y-34805D01*
X47932Y-35068D01*
X47770Y-35142D01*
X47597Y-35328D01*
X47519Y-35518D01*
X47566Y-35619D01*
X48101Y-35619D01*
X48101Y-35719D01*
X47566Y-35719D01*
X47519Y-35820D01*
X47597Y-36009D01*
X47770Y-36195D01*
X48000Y-36301D01*
X48101Y-36254D01*
X48101Y-36974D01*
X48008Y-36974D01*
X47786Y-36930D01*
X47619Y-36819D01*
X47508Y-36652D01*
X47464Y-36430D01*
X47464Y-32152D01*
X47508Y-31929D01*
X47619Y-31763D01*
X47786Y-31652D01*
X48008Y-31608D01*
X66853Y-31608D01*
X67076Y-31652D01*
X67242Y-31763D01*
X67353Y-31929D01*
X67397Y-32152D01*
X67397Y-32545D01*
X66795Y-32545D01*
X66733Y-32607D01*
X66733Y-33060D01*
X66741Y-33060D01*
X66741Y-33160D01*
X66733Y-33160D01*
X66733Y-33612D01*
X66795Y-33675D01*
X67397Y-33675D01*
X67397Y-36430D01*
X67397Y-36430D01*
G37*
G54D23*
X67397Y-36430D02*
X67353Y-36652D01*
X67342Y-36668D01*
X67342Y-35820D01*
X67342Y-35518D01*
X67264Y-35328D01*
X67091Y-35142D01*
X66861Y-35037D01*
X66760Y-35083D01*
X66760Y-35619D01*
X67295Y-35619D01*
X67342Y-35518D01*
X67342Y-35820D01*
X67295Y-35719D01*
X66760Y-35719D01*
X66760Y-36254D01*
X66861Y-36301D01*
X67091Y-36195D01*
X67264Y-36009D01*
X67342Y-35820D01*
X67342Y-36668D01*
X67242Y-36819D01*
X67076Y-36930D01*
X66853Y-36974D01*
X66660Y-36974D01*
X66660Y-36254D01*
X66660Y-35719D01*
X66652Y-35719D01*
X66652Y-35619D01*
X66660Y-35619D01*
X66660Y-35083D01*
X66633Y-35071D01*
X66633Y-33612D01*
X66633Y-33160D01*
X66633Y-33060D01*
X66633Y-32607D01*
X66570Y-32545D01*
X65925Y-32545D01*
X65833Y-32583D01*
X65762Y-32653D01*
X65724Y-32745D01*
X65724Y-32844D01*
X65724Y-32997D01*
X65787Y-33060D01*
X66633Y-33060D01*
X66633Y-33160D01*
X65787Y-33160D01*
X65724Y-33222D01*
X65724Y-33375D01*
X65724Y-33474D01*
X65762Y-33566D01*
X65833Y-33637D01*
X65925Y-33675D01*
X66570Y-33675D01*
X66633Y-33612D01*
X66633Y-35071D01*
X66559Y-35037D01*
X66329Y-35142D01*
X66329Y-35143D01*
X66322Y-35127D01*
X66252Y-35057D01*
X66160Y-35019D01*
X66060Y-35019D01*
X65260Y-35019D01*
X65169Y-35057D01*
X65098Y-35127D01*
X65060Y-35219D01*
X65060Y-35319D01*
X65060Y-35389D01*
X65045Y-35392D01*
X64948Y-35457D01*
X64452Y-35952D01*
X64452Y-34950D01*
X64414Y-34858D01*
X64344Y-34787D01*
X64252Y-34749D01*
X64153Y-34749D01*
X62814Y-34749D01*
X62722Y-34787D01*
X62716Y-34794D01*
X62363Y-34794D01*
X62363Y-34802D01*
X62263Y-34802D01*
X62263Y-34794D01*
X61889Y-34794D01*
X61827Y-34856D01*
X61827Y-34911D01*
X61859Y-34990D01*
X61827Y-35068D01*
X61827Y-35167D01*
X61827Y-35403D01*
X61865Y-35495D01*
X61935Y-35566D01*
X62027Y-35604D01*
X62072Y-35604D01*
X62017Y-35659D01*
X62017Y-35763D01*
X62004Y-35796D01*
X62004Y-35896D01*
X62004Y-36022D01*
X61939Y-36022D01*
X61939Y-36014D01*
X61939Y-35914D01*
X61939Y-35659D01*
X61876Y-35596D01*
X61850Y-35596D01*
X61758Y-35634D01*
X61688Y-35704D01*
X61650Y-35796D01*
X61650Y-35852D01*
X61712Y-35914D01*
X61939Y-35914D01*
X61939Y-36014D01*
X61712Y-36014D01*
X61650Y-36077D01*
X61650Y-36132D01*
X61673Y-36188D01*
X54551Y-36188D01*
X54551Y-35851D01*
X54566Y-35848D01*
X54566Y-35848D01*
X54663Y-35783D01*
X54910Y-35536D01*
X59621Y-35536D01*
X59651Y-35566D01*
X59743Y-35604D01*
X59842Y-35604D01*
X60314Y-35604D01*
X60406Y-35566D01*
X60477Y-35495D01*
X60515Y-35403D01*
X60515Y-35304D01*
X60515Y-35068D01*
X60482Y-34990D01*
X60515Y-34911D01*
X60515Y-34812D01*
X60515Y-34576D01*
X60490Y-34517D01*
X60530Y-34509D01*
X60530Y-34509D01*
X60627Y-34444D01*
X60879Y-34192D01*
X60879Y-34192D01*
X60944Y-34095D01*
X60967Y-33980D01*
X60967Y-33980D01*
X60967Y-33379D01*
X61024Y-33379D01*
X61072Y-33359D01*
X61121Y-33379D01*
X61148Y-33379D01*
X61210Y-33317D01*
X61210Y-33212D01*
X61224Y-33179D01*
X61224Y-33080D01*
X61224Y-32953D01*
X61289Y-32953D01*
X61289Y-32961D01*
X61307Y-32961D01*
X61307Y-33061D01*
X61289Y-33061D01*
X61289Y-33317D01*
X61351Y-33379D01*
X61378Y-33379D01*
X61469Y-33341D01*
X61540Y-33271D01*
X61570Y-33198D01*
X61627Y-33255D01*
X61627Y-34232D01*
X61650Y-34347D01*
X61715Y-34444D01*
X61812Y-34509D01*
X61851Y-34517D01*
X61827Y-34576D01*
X61827Y-34631D01*
X61889Y-34694D01*
X62263Y-34694D01*
X62263Y-34686D01*
X62363Y-34686D01*
X62363Y-34694D01*
X62736Y-34694D01*
X62799Y-34631D01*
X62799Y-34576D01*
X62774Y-34517D01*
X62814Y-34509D01*
X62911Y-34444D01*
X62976Y-34347D01*
X62999Y-34232D01*
X62999Y-34193D01*
X63611Y-33581D01*
X63667Y-33637D01*
X63759Y-33675D01*
X63858Y-33675D01*
X65275Y-33675D01*
X65367Y-33637D01*
X65437Y-33566D01*
X65475Y-33474D01*
X65475Y-33375D01*
X65475Y-32745D01*
X65437Y-32653D01*
X65367Y-32583D01*
X65275Y-32545D01*
X65176Y-32545D01*
X63759Y-32545D01*
X63724Y-32559D01*
X63724Y-32410D01*
X63686Y-32318D01*
X63616Y-32248D01*
X63524Y-32210D01*
X63424Y-32210D01*
X63030Y-32210D01*
X62938Y-32248D01*
X62868Y-32318D01*
X62858Y-32343D01*
X62858Y-32130D01*
X62858Y-32035D01*
X62820Y-31943D01*
X62750Y-31873D01*
X62658Y-31835D01*
X62558Y-31835D01*
X62523Y-31835D01*
X62461Y-31898D01*
X62461Y-32193D01*
X62795Y-32193D01*
X62858Y-32130D01*
X62858Y-32343D01*
X62854Y-32351D01*
X62795Y-32293D01*
X62461Y-32293D01*
X62461Y-32300D01*
X62361Y-32300D01*
X62361Y-32293D01*
X62353Y-32293D01*
X62353Y-32193D01*
X62361Y-32193D01*
X62361Y-31898D01*
X62298Y-31835D01*
X62264Y-31835D01*
X62164Y-31835D01*
X62072Y-31873D01*
X62002Y-31943D01*
X61964Y-32035D01*
X61964Y-32121D01*
X61645Y-31803D01*
X61548Y-31738D01*
X61433Y-31715D01*
X52017Y-31715D01*
X51902Y-31738D01*
X51805Y-31803D01*
X51740Y-31900D01*
X51737Y-31915D01*
X51613Y-31915D01*
X51521Y-31953D01*
X51451Y-32023D01*
X51413Y-32115D01*
X51413Y-32215D01*
X51413Y-34498D01*
X51434Y-34549D01*
X50829Y-34549D01*
X50850Y-34498D01*
X50850Y-34399D01*
X50850Y-32115D01*
X50812Y-32023D01*
X50742Y-31953D01*
X50650Y-31915D01*
X50550Y-31915D01*
X49842Y-31915D01*
X49750Y-31953D01*
X49679Y-32023D01*
X49641Y-32115D01*
X49641Y-32215D01*
X49641Y-32770D01*
X49606Y-32735D01*
X49514Y-32697D01*
X49415Y-32697D01*
X48615Y-32697D01*
X48523Y-32735D01*
X48453Y-32806D01*
X48430Y-32859D01*
X48385Y-32840D01*
X48286Y-32840D01*
X48129Y-32840D01*
X48080Y-32860D01*
X48031Y-32840D01*
X47932Y-32840D01*
X47775Y-32840D01*
X47683Y-32878D01*
X47613Y-32949D01*
X47575Y-33040D01*
X47575Y-33140D01*
X47575Y-33376D01*
X47603Y-33445D01*
X47603Y-33539D01*
X47608Y-33563D01*
X47545Y-33626D01*
X47507Y-33718D01*
X47507Y-33817D01*
X47507Y-34067D01*
X47545Y-34159D01*
X47578Y-34192D01*
X47545Y-34226D01*
X47507Y-34318D01*
X47507Y-34380D01*
X47569Y-34442D01*
X47932Y-34442D01*
X47932Y-34435D01*
X48032Y-34435D01*
X48032Y-34442D01*
X48040Y-34442D01*
X48040Y-34542D01*
X48032Y-34542D01*
X48032Y-34805D01*
X48094Y-34867D01*
X48157Y-34867D01*
X48257Y-34867D01*
X48348Y-34829D01*
X48414Y-34763D01*
X48414Y-34897D01*
X48453Y-34989D01*
X48523Y-35059D01*
X48583Y-35084D01*
X48539Y-35127D01*
X48533Y-35143D01*
X48532Y-35142D01*
X48302Y-35037D01*
X48201Y-35083D01*
X48201Y-35619D01*
X48209Y-35619D01*
X48209Y-35719D01*
X48201Y-35719D01*
X48201Y-36254D01*
X48302Y-36301D01*
X48532Y-36195D01*
X48533Y-36195D01*
X48539Y-36210D01*
X48609Y-36281D01*
X48701Y-36319D01*
X48801Y-36319D01*
X49601Y-36319D01*
X49693Y-36281D01*
X49763Y-36210D01*
X49779Y-36171D01*
X50309Y-36701D01*
X50309Y-36701D01*
X50406Y-36766D01*
X50521Y-36788D01*
X64340Y-36788D01*
X64340Y-36788D01*
X64455Y-36766D01*
X64455Y-36766D01*
X64552Y-36701D01*
X65082Y-36171D01*
X65098Y-36210D01*
X65169Y-36281D01*
X65260Y-36319D01*
X65360Y-36319D01*
X66160Y-36319D01*
X66252Y-36281D01*
X66322Y-36210D01*
X66329Y-36195D01*
X66329Y-36195D01*
X66559Y-36301D01*
X66660Y-36254D01*
X66660Y-36974D01*
X48101Y-36974D01*
X48101Y-36254D01*
X48101Y-35719D01*
X48101Y-35619D01*
X48101Y-35083D01*
X48000Y-35037D01*
X47932Y-35068D01*
X47932Y-34805D01*
X47932Y-34542D01*
X47569Y-34542D01*
X47507Y-34605D01*
X47507Y-34667D01*
X47545Y-34759D01*
X47615Y-34829D01*
X47707Y-34867D01*
X47807Y-34867D01*
X47869Y-34867D01*
X47932Y-34805D01*
X47932Y-35068D01*
X47770Y-35142D01*
X47597Y-35328D01*
X47519Y-35518D01*
X47566Y-35619D01*
X48101Y-35619D01*
X48101Y-35719D01*
X47566Y-35719D01*
X47519Y-35820D01*
X47597Y-36009D01*
X47770Y-36195D01*
X48000Y-36301D01*
X48101Y-36254D01*
X48101Y-36974D01*
X48008Y-36974D01*
X47786Y-36930D01*
X47619Y-36819D01*
X47508Y-36652D01*
X47464Y-36430D01*
X47464Y-32152D01*
X47508Y-31929D01*
X47619Y-31763D01*
X47786Y-31652D01*
X48008Y-31608D01*
X66853Y-31608D01*
X67076Y-31652D01*
X67242Y-31763D01*
X67353Y-31929D01*
X67397Y-32152D01*
X67397Y-32545D01*
X66795Y-32545D01*
X66733Y-32607D01*
X66733Y-33060D01*
X66741Y-33060D01*
X66741Y-33160D01*
X66733Y-33160D01*
X66733Y-33612D01*
X66795Y-33675D01*
X67397Y-33675D01*
X67397Y-36430D01*
M02*
